<?xml version="1.0" encoding="UTF-8" standalone="no"?>
<svg
   xmlns:dc="http://purl.org/dc/elements/1.1/"
   xmlns:cc="http://creativecommons.org/ns#"
   xmlns:rdf="http://www.w3.org/1999/02/22-rdf-syntax-ns#"
   xmlns:svg="http://www.w3.org/2000/svg"
   xmlns="http://www.w3.org/2000/svg"
   xmlns:sodipodi="http://sodipodi.sourceforge.net/DTD/sodipodi-0.dtd"
   xmlns:inkscape="http://www.inkscape.org/namespaces/inkscape"
   version="1.1"
   id="svg2"
   xml:space="preserve"
   width="1000"
   height="666.66669"
   viewBox="0 0 1000 666.66669"
   sodipodi:docname="3793345.eps"><metadata
     id="metadata8"><rdf:RDF><cc:Work
         rdf:about=""><dc:format>image/svg+xml</dc:format><dc:type
           rdf:resource="http://purl.org/dc/dcmitype/StillImage" /></cc:Work></rdf:RDF></metadata><defs
     id="defs6" /><sodipodi:namedview
     pagecolor="#666666"
     bordercolor="#666666"
     borderopacity="1"
     objecttolerance="10"
     gridtolerance="10"
     guidetolerance="10"
     inkscape:pageopacity="0"
     inkscape:pageshadow="2"
     inkscape:window-width="640"
     inkscape:window-height="480"
     id="namedview4" /><g
     id="g10"
     inkscape:groupmode="layer"
     inkscape:label="ink_ext_XXXXXX"
     transform="matrix(1.3333333,0,0,-1.3333333,0,666.66667)"><g
       id="g12"
       transform="scale(0.1)"><path
         d="M 7500,0 H 0 V 5000 H 7500 V 0"
         style="fill:#f8fdff;fill-opacity:1;fill-rule:nonzero;stroke:none"
         id="path14" /><path
         d="m 5039.25,3261.05 -117.67,-48.38 c 0,0 29.6,-99.82 37.89,-172.4 h 124.22 c -3.83,107 -44.44,220.78 -44.44,220.78"
         style="fill:#f7916f;fill-opacity:1;fill-rule:nonzero;stroke:none"
         id="path16" /><path
         d="M 7075.74,837.961 C 7075.74,714.41 5586.76,614.262 3750,614.262 1913.24,614.262 424.254,714.41 424.254,837.961 424.254,961.5 1913.24,1061.66 3750,1061.66 c 1836.76,0 3325.74,-100.16 3325.74,-223.699"
         style="fill:#c8e9ef;fill-opacity:1;fill-rule:nonzero;stroke:none"
         id="path18" /><path
         d="m 6053.47,1754.52 c -4.26,34.87 -11.66,99.71 -15.09,132.52 l 228.11,-30.41 21.84,-1.05 c -2.6,-22.46 -7.8,-18.47 -10.19,-37.61 -6.98,-56.02 -40.34,-119.08 -40.34,-119.08 0,0 36.44,-127.16 36.44,-231.49 0,-104.32 -38.18,-427.47 -38.18,-427.47 l 7.15,-14.82 -101.23,-0.53 v 0 l 3.58,-10.06 c -1.91,15.76 -13.02,55.36 -15.23,73.49 -46.83,262.11 -72.9,600.55 -72.9,600.55 -14.29,33.35 -3.96,65.96 -3.96,65.96"
         style="fill:#f8a49b;fill-opacity:1;fill-rule:nonzero;stroke:none"
         id="path20" /><path
         d="m 6081.91,990.699 21.74,27.011 c 14.31,17.77 37.65,24.97 59.78,19.46 31.19,-7.77 58.34,-6.37 96.34,11.64 7.28,-0.04 13.18,-5.96 13.17,-13.25 l -0.08,-2.92 -0.29,-0.04 4.82,-118.741 -251.73,-0.898 c -8.77,45.309 -24.43,64.809 -24.43,64.809 l 80.68,12.929"
         style="fill:#f6eef0;fill-opacity:1;fill-rule:nonzero;stroke:none"
         id="path22" /><path
         d="m 6001.23,977.77 c 0,0 15.66,-19.5 24.43,-64.809 l -122.44,-0.441 c -6.54,60.64 43.7,65.25 98.01,65.25"
         style="fill:#1a1d3d;fill-opacity:1;fill-rule:nonzero;stroke:none"
         id="path24" /><path
         d="m 5902.29,884.949 h 375.06 l 0.43,33.02 h -375.06 l -0.43,-33.02"
         style="fill:#1a1d3d;fill-opacity:1;fill-rule:nonzero;stroke:none"
         id="path26" /><path
         d="m 5957.41,3017.41 c -66.43,-47.57 -128.69,-104.99 -172.16,-173.01 -43.46,-68.02 -75.13,-132.2 -124.21,-194.92 6.79,-17.23 9.55,-32.18 25.41,-45.63 15.87,-13.45 26.72,-27.64 50.3,-25.15 94.13,105.74 243.41,242.36 347.35,366.04 l -126.69,72.67 v 0"
         style="fill:#f8a49b;fill-opacity:1;fill-rule:nonzero;stroke:none"
         id="path28" /><path
         d="m 5598.35,2592.41 c -11.71,-1.32 -27.5,-4.82 -43.9,-7.78 -53.07,-9.59 -48.53,23.01 -48.53,23.01 l 60.31,18.06 45.4,14.57 c 30.57,19.06 106.6,32.96 106.6,32.96 l 34.4,-45.35 -7.78,-28.35 c -0.15,-1.62 -0.07,-3.24 -0.6,-4.84 l -26.11,-67.9 -0.01,-0.04 v 0 l -35.1,-91.33 c -3.79,-11.26 -9.66,-20.74 -20.92,-16.95 l -2.06,0.69 c -11.27,3.79 -9.5,14.66 -5.71,25.92 l 11.46,40.12 -28.71,-74.7 c -3.8,-11.27 -9.66,-20.75 -20.92,-16.96 l -2.07,0.69 c -11.26,3.8 -9.49,14.66 -5.7,25.93 l 2.26,7.94 -18.02,-40.34 c -4.4,-11.04 -10.76,-20.2 -21.8,-15.82 l -2.02,0.81 c -11.05,4.39 -8.7,15.14 -4.32,26.19 l 19.55,56.75 -22.34,-38.61 c -5.51,-10.53 -12.78,-18.97 -23.31,-13.47 l -1.94,1.02 c -10.52,5.51 -7.08,15.97 -1.57,26.49 l 63.45,136.17 c 0.95,8.74 0.59,17.18 0.01,25.12"
         style="fill:#f8a49b;fill-opacity:1;fill-rule:nonzero;stroke:none"
         id="path30" /><path
         d="m 6084.1,2944.74 c 18.77,45.94 40.86,120.7 49.84,159.59 34.88,151.07 -30.52,211.14 -162.25,202.46 -16.67,-100.58 -42.42,-199.88 -23.47,-300.36 l 135.88,-61.69"
         style="fill:#f8a49b;fill-opacity:1;fill-rule:nonzero;stroke:none"
         id="path32" /><path
         d="m 5936.42,3267.44 c 11.56,73.02 43.81,141.88 95.66,194.59 3.08,3.13 6.25,6.24 9.52,9.33 65.42,61.69 204.88,67.6 204.88,67.6 0,0 -10.73,-219.79 -111.67,-482.26 0,0 -83.73,-60.18 -218.25,7.35 0,0 1.94,90.28 19.86,203.39"
         style="fill:#ec134a;fill-opacity:1;fill-rule:nonzero;stroke:none"
         id="path34" /><path
         d="m 6261.55,1926.81 c 2.85,-22.28 7.59,-48.34 13.17,-75.29 l -238.82,11.51 c -20.2,193.29 -26.84,349.74 -28.08,454.69 14.56,5.97 29.93,14.48 40.65,26.38 26.63,29.6 22.94,127.04 22.94,127.04 l -18.2,29.56 116.97,34.42 9.83,-54.83 78.46,-6.33 c -0.08,-43.09 -0.11,-92.65 -0.07,-146.87 l 60.5,-30.83 v -79.7 l -72.88,-18.21 c 0,0 2.95,-173.14 15.53,-271.54"
         style="fill:#1c3a5f;fill-opacity:1;fill-rule:nonzero;stroke:none"
         id="path36" /><path
         d="m 6261.55,1926.81 c -12.58,98.4 -15.53,271.54 -15.53,271.54 l 72.88,18.21 v -106.12 c -2.7,-76.47 -12.73,-176.81 -22.35,-259.97 l -21.83,1.05 c -5.58,26.95 -10.32,53.01 -13.17,75.29"
         style="fill:#1a1d3d;fill-opacity:1;fill-rule:nonzero;stroke:none"
         id="path38" /><path
         d="m 6048.47,2344.1 c -10.72,-11.9 -26.09,-20.41 -40.65,-26.38 -0.48,40.44 -0.16,73.29 0.47,97.65 -0.43,28.23 -0.43,54.76 0.19,78.77 l 17.61,-1.42 27.12,7.98 18.2,-29.56 c 0,0 3.69,-97.44 -22.94,-127.04"
         style="fill:#1a1d3d;fill-opacity:1;fill-rule:nonzero;stroke:none"
         id="path40" /><path
         d="m 6618.18,1745.83 c 0,-0.01 0,-0.01 0,-0.01 0,0 40.33,-134.81 56.98,-267.99 16.64,-133.18 5.78,-463.32 5.78,-463.32 h -67.48 c 0,0 -74.58,230.92 -121.47,380.75 -46.88,149.83 -70.26,333.76 -70.26,333.76 -16.68,35.02 -47.24,88.22 -55.18,123.54 l 239.77,24.62 c 4.58,-64.15 11.86,-131.34 11.86,-131.35"
         style="fill:#f8a49b;fill-opacity:1;fill-rule:nonzero;stroke:none"
         id="path42" /><path
         d="m 6193.49,2311.38 21.93,124.66 c -4.7,21.61 -6.49,33.56 -4.71,33.56 l 10.67,0.3 18.72,106.39 183.46,-34.69 -62.13,-25.1 71.77,-60.67 c 0,0 7.4,-79.17 41.44,-132.44 18.24,-28.56 68.37,-32.87 110.96,-30.73 0.22,-2.12 0.59,-4.29 0.77,-6.38 6.02,-72.37 22.12,-295.68 31.81,-431.56 l -254.86,-18.91 c -70.3,188.01 -105.47,291.28 -105.47,291.28 l -64.36,184.29"
         style="fill:#1c3a5f;fill-opacity:1;fill-rule:nonzero;stroke:none"
         id="path44" /><path
         d="m 6474.64,2323.39 c -34.04,53.27 -41.44,132.44 -41.44,132.44 l -71.77,60.67 62.13,25.09 85.11,-16.09 c 0,0 9.49,-18.31 21.88,-46.75 l 4.7,0.14 c 0,-2.02 0.39,-6.73 1.12,-13.81 19.51,-46.67 43.04,-113.01 49.23,-172.42 -42.59,-2.14 -92.71,2.17 -110.96,30.73"
         style="fill:#1a1d3d;fill-opacity:1;fill-rule:nonzero;stroke:none"
         id="path46" /><path
         d="m 6568.38,997.012 v 13.798 c 1.02,25.7 22.53,45.8 48.24,45.1 l 58.39,-1.6 c 22.69,-0.62 41.71,-17.39 45.14,-39.85 0.45,-3.01 0.92,-15.991 1.37,-29.331 0,0 -62.92,59.851 -153.14,11.883"
         style="fill:#f6eef0;fill-opacity:1;fill-rule:nonzero;stroke:none"
         id="path48" /><path
         d="m 6744.98,916.691 h -211.9 c 0,0 -0.94,50.09 35.3,80.321 90.22,47.968 153.14,-11.883 153.14,-11.883 24.22,-29.891 23.46,-68.438 23.46,-68.438"
         style="fill:#1a1d3d;fill-opacity:1;fill-rule:nonzero;stroke:none"
         id="path50" /><path
         d="m 6533.23,883.559 h 211.9 l -0.15,33.132 h -211.9 l 0.15,-33.132"
         style="fill:#1a1d3d;fill-opacity:1;fill-rule:nonzero;stroke:none"
         id="path52" /><path
         d="m 5968.73,3280.45 63.57,20.41 505.07,-26.74 44.49,-180.27 -23.4,-379.45 -14.31,-191.77 -3.38,-45.15 c -0.6,-8.11 -6.11,-15.05 -13.9,-17.43 -68.73,-21.02 -393.74,-110.29 -525.92,35.27 -3.17,3.48 -4.87,8.01 -4.97,12.72 -0.61,25.94 -1.41,52.79 -2.35,80.23 -7.17,210.44 -69.83,510.42 -24.9,692.18"
         style="fill:#eb2360;fill-opacity:1;fill-rule:nonzero;stroke:none"
         id="path54" /><path
         d="m 6446.64,3518 c -13.31,6.54 -26.44,13.21 -39.1,20.15 l 0.02,-0.03 c 0,0 -9.12,-103.42 -144.52,-99.72 -88.42,2.42 -99.53,65.4 -96.61,108.82 -12.54,-6.42 -24.36,-12.63 -35.67,-18.75 -91.87,-49.79 -142.55,-93.28 -144.44,-185.51 0,0 0,-98.79 179.71,-98.79 l 131.29,-6.19 317.23,-6.2 c 62.62,-1.22 66.83,89.51 66.83,89.51 1.81,98.06 -123.49,142.12 -234.74,196.71"
         style="fill:#eb2360;fill-opacity:1;fill-rule:nonzero;stroke:none"
         id="path56" /><path
         d="m 6263.04,3438.4 c -88.42,2.42 -99.53,65.4 -96.61,108.82 25.53,13.07 50.16,26.62 72.18,41.38 19.86,13.3 59.41,29.17 66.07,25.93 6.77,2.97 32.26,-30.36 51.58,-44.43 15.68,-11.41 33.03,-21.94 51.27,-31.95 l 0.03,-0.03 c 0,0 -9.12,-103.42 -144.52,-99.72"
         style="fill:#f8a49b;fill-opacity:1;fill-rule:nonzero;stroke:none"
         id="path58" /><path
         d="m 6366.85,3543.24 c -5.79,-58.83 -166.72,-99.49 -162.34,-4.7 l 16.49,189.14 151.71,8.04 c -12.9,-81.79 -16.8,-151.14 -5.86,-192.48"
         style="fill:#f8a49b;fill-opacity:1;fill-rule:nonzero;stroke:none"
         id="path60" /><path
         d="m 6195.31,3608.91 c 0,0 -21.11,176.26 -3.51,226.54 l 30.76,207.25 c 17.6,50.27 60.09,94.2 108.05,86 l 117.69,-20.11 c 47.97,-8.2 82.43,-68.68 64.83,-118.96 l -113.98,-291.98 c -17.6,-50.28 -80.35,-108.69 -203.84,-88.74"
         style="fill:#f38b84;fill-opacity:1;fill-rule:nonzero;stroke:none"
         id="path62" /><path
         d="m 6193.72,3609.04 -3.18,0.27 c -69.27,11.84 -104.99,88.74 -93.16,158 l 33.31,314.82 c 3.04,17.72 20.01,29.74 37.73,26.71 l 234.93,-40.15 c 17.71,-3.03 51.4,-23.85 48.37,-41.57 l -63.49,-269.87 c -16.3,-95.39 -99.13,-164.51 -194.51,-148.21"
         style="fill:#f8a49b;fill-opacity:1;fill-rule:nonzero;stroke:none"
         id="path64" /><path
         d="m 6135.7,3906.05 c -4.15,-17.82 1.53,-34.37 12.68,-36.97 11.15,-2.6 23.56,9.74 27.71,27.56 4.15,17.81 -1.51,34.37 -12.67,36.96 -11.15,2.6 -23.56,-9.73 -27.72,-27.55"
         style="fill:#1a1d3d;fill-opacity:1;fill-rule:nonzero;stroke:none"
         id="path66" /><path
         d="m 6295.27,3871.92 c -5.04,-17.58 -0.2,-34.39 10.8,-37.55 11.01,-3.16 24.03,8.54 29.07,26.12 5.04,17.59 0.21,34.4 -10.8,37.56 -11.01,3.16 -24.02,-8.54 -29.07,-26.13"
         style="fill:#1a1d3d;fill-opacity:1;fill-rule:nonzero;stroke:none"
         id="path68" /><path
         d="m 6538.35,2852.38 c -107.21,-255.11 -588.05,-362.02 -588.05,-362.02 0,0 -32.08,14.94 -37.88,41.82 -5.79,26.88 3.14,46.15 3.14,46.15 0,0 125.09,48.64 204.84,104.86 79.76,56.22 210.34,132.04 210.34,132.04 0,0 15.78,115.6 84.98,273.49 0,0 220.5,-3.45 122.63,-236.34"
         style="fill:#f8a49b;fill-opacity:1;fill-rule:nonzero;stroke:none"
         id="path70" /><path
         d="m 6683.14,3334.3 c 18.21,-150.64 -109.19,-406.21 -109.19,-406.21 0,0 -93.28,-36.57 -218.08,55.73 0,0 29.05,142.43 60.17,258.26 47.82,177.93 246.08,266.19 267.1,92.22"
         style="fill:#ec134a;fill-opacity:1;fill-rule:nonzero;stroke:none"
         id="path72" /><path
         d="m 6095.15,3508.14 c 0,0 -128.34,-83.61 -139.06,-332.11 -6.76,-156.8 399.78,-171.36 399.78,-171.36 l -260.72,503.47"
         style="fill:#eb2360;fill-opacity:1;fill-rule:nonzero;stroke:none"
         id="path74" /><path
         d="m 6195.37,3772.32 2.95,12.23 c -7.77,1.89 -21.58,7.39 -25.49,14.14 -1.08,1.85 -1.29,3.57 -0.71,5.57 3.03,10.52 22.65,11.43 29.22,10.97 l 4.87,-0.37 20.21,59.79 -11.91,4.03 -17.18,-50.81 c -10.06,-0.15 -32.19,-2.53 -37.29,-20.11 -1.52,-5.28 -0.86,-10.61 1.92,-15.4 7.88,-13.56 30.82,-19.41 33.41,-20.04"
         style="fill:#f38b84;fill-opacity:1;fill-rule:nonzero;stroke:none"
         id="path76" /><path
         d="m 6194.78,3696.02 c 22.54,0 46.39,11.98 47.59,12.58 l -5.69,11.21 c -0.29,-0.16 -31.43,-15.75 -52.01,-9.97 -20.71,5.84 -35.89,29.05 -36.04,29.28 l -10.55,-6.81 c 0.72,-1.12 17.94,-27.46 43.17,-34.57 4.33,-1.22 8.91,-1.72 13.53,-1.72"
         style="fill:#f38b84;fill-opacity:1;fill-rule:nonzero;stroke:none"
         id="path78" /><path
         d="m 6480.72,3753.4 c -21.71,-30.4 -54.99,-43.84 -74.34,-30.01 -1.91,1.36 -3.61,2.94 -5.11,4.71 -13.67,16.13 -10.2,47.96 9.37,75.37 21.7,30.4 54.98,43.83 74.34,30.01 19.36,-13.83 17.44,-49.68 -4.26,-80.08"
         style="fill:#f38b84;fill-opacity:1;fill-rule:nonzero;stroke:none"
         id="path80" /><path
         d="m 6118.05,4075.22 c 7.27,84.17 90.31,112.16 175.7,122.92 7.09,0.89 13.34,-1.39 20.39,-2.55 0.04,-0.01 13.54,5.14 13.56,5.13 101.78,-16.84 180.69,-15.7 211.93,-89.35 27.76,-65.44 -14.31,-203.04 -55.78,-280.36 l -15.94,3.29 c -4.04,-1.9 -18.83,-3.34 -38.33,-15.22 -2.91,10.99 -14.4,60.27 -22.66,180.71 0,0 -107.63,-2.2 -189.64,15.37 -82,17.57 -100.3,36.61 -100.3,36.61 0,0 -0.43,4.36 -0.96,11.83 0.93,3.68 1.67,7.52 2.03,11.62"
         style="fill:#58291d;fill-opacity:1;fill-rule:nonzero;stroke:none"
         id="path82" /><path
         d="m 6117.94,4051.77 c 0,0 -10.46,40.56 1.85,73.7 12.33,33.15 88.85,91.01 208.87,75.25 l -112.83,-130.49 -97.89,-18.46"
         style="fill:#58291d;fill-opacity:1;fill-rule:nonzero;stroke:none"
         id="path84" /><path
         d="m 6150.15,3975.5 c 16.87,-0.93 32.46,-3.85 48.18,-9.14 6.6,-2.22 13.67,1.82 15.27,8.6 l 0.01,0.02 c 1.35,5.66 -1.51,11.66 -6.92,13.81 -18.17,7.22 -36.87,10.8 -56.14,10.63 -5.85,-0.05 -10.68,-4.69 -11.42,-10.49 v 0 c -0.87,-6.81 4.17,-13.05 11.02,-13.43"
         style="fill:#58291d;fill-opacity:1;fill-rule:nonzero;stroke:none"
         id="path86" /><path
         d="m 6311.4,3936.89 c 18.73,-1.92 35.85,-6.03 53.01,-12.87 6.47,-2.57 13.73,1.15 15.69,7.83 l 0.44,1.54 c 1.64,5.59 -0.92,11.73 -6.22,14.17 -19.51,9 -39.84,13.96 -61.01,14.77 -5.85,0.22 -10.92,-4.16 -11.94,-9.92 l -0.28,-1.54 c -1.21,-6.75 3.48,-13.28 10.31,-13.98"
         style="fill:#58291d;fill-opacity:1;fill-rule:nonzero;stroke:none"
         id="path88" /><path
         d="m 5975.32,2603.81 c 0,0 37.23,-31.87 32.27,-98.47 l -57.29,-14.98 -42.24,77.54 7.5,10.43 59.76,25.48"
         style="fill:#f8a49b;fill-opacity:1;fill-rule:nonzero;stroke:none"
         id="path90" /><path
         d="m 5689.67,2688.83 c 0,0 59.92,-5.88 87.27,-66.47 l -40.19,-43.66 -83.95,38.67 18.15,45.1 18.72,26.36"
         style="fill:#f8a49b;fill-opacity:1;fill-rule:nonzero;stroke:none"
         id="path92" /><path
         d="m 3578.48,2574.36 c 9.27,-2.76 21.51,-7.9 34.32,-12.68 41.47,-15.48 42.56,11.51 42.56,11.51 l -46.09,23.38 -34.54,18.39 c -21.92,19.85 -78.36,35.64 -78.36,35.64 l -41.04,-15.73 2.14,-27.08 c -0.11,-1.33 3.29,-8.95 3.49,-10.32 l 11.19,-58.65 v -0.04 0 l 15.05,-78.88 c 1.42,-9.66 4.77,-18.16 14.42,-16.75 l 1.77,0.27 c 9.65,1.41 9.81,10.45 8.39,20.1 l -3.42,34.07 12.31,-64.52 c 1.42,-9.65 4.78,-18.17 14.43,-16.75 l 1.76,0.26 c 9.66,1.43 9.82,10.46 8.4,20.11 l -0.68,6.74 8.69,-35.21 c 1.93,-9.56 5.73,-17.88 15.29,-15.94 l 1.76,0.35 c 9.56,1.93 9.24,10.96 7.3,20.52 l -7.52,48.7 12.42,-34.45 c 2.91,-9.3 7.56,-17.19 16.87,-14.28 l 1.7,0.54 c 9.31,2.92 8.06,11.87 5.14,21.17 l -31.4,119.25 c 0.5,7.18 2.02,13.96 3.65,20.28"
         style="fill:#fbc6bc;fill-opacity:1;fill-rule:nonzero;stroke:none"
         id="path94" /><path
         d="m 3119.7,4178.37 c 0,0 -197,97.13 -290.02,-90.29 -71.13,-143.3 -29.42,-446.42 -104.29,-562.84 -51.98,-80.81 -2.96,-188.81 91.32,-207.33 40.99,-8.05 90.02,-10.14 148.54,-2.82 295.5,36.94 299.47,120.43 299.47,218.93 0,98.5 0,290.03 -108.08,352.96 l -36.94,291.39"
         style="fill:#58291d;fill-opacity:1;fill-rule:nonzero;stroke:none"
         id="path96" /><path
         d="m 3347.16,3038.42 c -22.64,58.81 -50.02,186.13 -47.71,230.22 9.19,0.52 13.46,-8.39 21.96,-6.12 8.49,2.27 10.5,5.94 17.04,9.76 34.81,4.6 60.67,31.25 95.19,37.17 11.48,-86.67 21.84,-173.42 30.08,-260.47 v 0 l -100.94,-52.47 c -0.26,1.01 -15.25,40.93 -15.62,41.91"
         style="fill:#fbc6bc;fill-opacity:1;fill-rule:nonzero;stroke:none"
         id="path98" /><path
         d="m 3350.59,3036.29 103.91,51.41 c 15.26,-61.34 33.07,-122.88 40.88,-186.13 15.56,-105.11 26.28,-155.36 28.9,-261.8 l -66.81,-31.98 c -44.29,166.88 -65.43,254.49 -106.88,428.5"
         style="fill:#fbc6bc;fill-opacity:1;fill-rule:nonzero;stroke:none"
         id="path100" /><path
         d="m 3188.76,3538.63 c 0.39,-0.16 -0.03,1.61 0.45,2.22 28.36,-9.02 64.48,-17.7 91.35,-27.76 53.83,-20.16 102.11,-66.65 122.26,-115.03 22.33,-53.59 32.73,-94.87 54.5,-145 1.72,-3.96 2.42,-6.57 4.24,-10.58 -11.19,-16.62 -23.23,-32.35 -39.52,-43.49 -19.73,53.97 -46.7,143.07 -69.99,187.92 -41.7,80.33 -92.73,110.64 -163.29,151.72"
         style="fill:#f7c31c;fill-opacity:1;fill-rule:nonzero;stroke:none"
         id="path102" /><path
         d="m 3188.66,3540.98 c 0.04,-0.06 0.36,-0.05 0.35,-0.14 -0.05,-0.59 32.09,-9.5 31.86,-9.34 70.54,-41.08 89.48,-64.26 131.19,-144.59 23.28,-44.85 50.25,-133.95 69.98,-187.92 -27.17,-20.83 -57.28,-30 -89.45,-38.86 -1.1,1.95 -2.06,3.59 -3.18,5.54 -28.19,49.3 -55.84,98.99 -82.94,148.94 -18.92,42.28 -37.81,84.56 -56.72,126.85 -0.37,33.17 -0.73,66.34 -1.09,99.52"
         style="fill:#fbce43;fill-opacity:1;fill-rule:nonzero;stroke:none"
         id="path104" /><path
         d="m 3027.53,3495.26 v 0 c 37.36,1.2 66.67,32.45 65.48,69.81 l -5.39,168.41 -135.27,-4.32 5.38,-168.42 c 1.2,-37.36 32.45,-66.67 69.8,-65.48"
         style="fill:#fbc6bc;fill-opacity:1;fill-rule:nonzero;stroke:none"
         id="path106" /><path
         d="m 2715.18,987.602 -0.16,0.007 c 0,0 6.19,423.171 13.72,550.291 7.54,127.12 41.11,176.36 41.11,176.36 0,0 7.23,402.72 22.93,625.56 4.65,66.05 33.6,102.17 71.94,120.51 l 23.3,188.11 218.47,71.73 17.12,5.62 -13.05,-71.57 -36.26,-198.86 c 15.92,-4.95 25.67,-8.83 25.67,-8.83 0,0 5.48,-293.45 -164.87,-754.65 0,0 -36.64,-347.7 -126.42,-722.392 h -11.47 l -2.4,5.364 -80.92,-5.364 1.29,18.114"
         style="fill:#fbc6bc;fill-opacity:1;fill-rule:nonzero;stroke:none"
         id="path108" /><path
         d="m 3246.59,964.832 -0.14,-0.023 c 0,0 -71.67,417.121 -87.6,543.461 -15.95,126.34 8.01,180.91 8.01,180.91 0,0 -66.87,397.2 -92.37,619.13 -7.56,65.77 14.26,106.6 48.58,131.67 l -11.65,189.19 201.58,110.63 15.79,8.68 0.32,-72.75 0.89,-202.14 c 16.56,-1.94 26.86,-3.95 26.86,-3.95 0,0 59.29,-287.46 -23.45,-772.1 0,0 21.03,-337.09 1.61,-721.899 l -7.72,-0.93 -0.08,-7.781 -78.56,-20.121 -2.07,18.023"
         style="fill:#fbc6bc;fill-opacity:1;fill-rule:nonzero;stroke:none"
         id="path110" /><path
         d="m 2732.42,2329.44 c 29.95,260.84 26.9,402.81 178.03,544.6 12.31,12.48 20.31,17.67 20.31,17.67 l 3.65,38.18 65.85,-3.93 c 25.91,6.28 60.26,10.39 105.64,8.49 83.26,-3.49 130.8,-15.33 155.37,-24.07 l 21.37,-1.28 c 0,0 5.31,-10.17 13.4,-28.39 82.83,-133.28 95.27,-269.32 103.08,-419.82 8.19,-157.92 83.54,-937.65 83.54,-937.65 0,0 -150.7,-113.02 -391.5,-88.45 -240.8,24.57 -270.33,53.09 -389.91,36.71 0,0 7.28,649.92 31.17,857.94"
         style="fill:#2a3b93;fill-opacity:1;fill-rule:nonzero;stroke:none"
         id="path112" /><path
         d="m 2947.69,3568.73 c 14.89,11.27 56.65,23.93 62.28,22.21 5.22,2.74 48.59,-1.88 65.34,-10.17 49.66,-24.6 98.64,-39.31 136.88,-58.38 -8.21,-24.72 -13.16,-51.91 -19.46,-73.88 -11.02,-38.49 -18.55,-76.39 -25.03,-114.86 l -132.33,-11.95 -256.2,-24.17 c -50.57,-4.78 -58.66,59.95 -58.66,59.95 -8.44,90.59 136.55,142.62 227.18,211.25"
         style="fill:#fbc6bc;fill-opacity:1;fill-rule:nonzero;stroke:none"
         id="path114" /><path
         d="m 3125.72,4010.28 c -92.14,-0.4 -184.27,-0.73 -276.41,-0.94 l 51.18,-233.66 c 7.68,-52.83 46.82,-122.77 172.11,-126.8 0,0 54.53,169.33 46.86,222.16 l 6.26,139.24"
         style="fill:#f0a093;fill-opacity:1;fill-rule:nonzero;stroke:none"
         id="path116" /><path
         d="m 2907.6,4103.38 12.68,-272.01 c -2.24,-96.95 56.97,-180.43 153.91,-182.66 l 3.19,-0.35 c 70.4,-1.62 127.02,56.92 128.65,127.32 l 18.14,329.01 c -105.52,-0.55 -211.05,-1.02 -316.57,-1.31"
         style="fill:#fbc6bc;fill-opacity:1;fill-rule:nonzero;stroke:none"
         id="path118" /><path
         d="m 2819.54,3845.68 c 15.53,-34.06 45.69,-53.65 67.37,-43.77 2.14,0.99 4.12,2.21 5.93,3.66 16.54,13.26 19.22,45.24 5.22,75.93 -15.53,34.07 -45.69,53.66 -67.37,43.76 -21.69,-9.89 -26.68,-45.52 -11.15,-79.58"
         style="fill:#f0a093;fill-opacity:1;fill-rule:nonzero;stroke:none"
         id="path120" /><path
         d="m 3021.07,3896.3 c 1.59,-18.27 -6.39,-33.88 -17.82,-34.88 -11.43,-1 -21.99,13 -23.58,31.27 -1.59,18.26 6.38,33.87 17.81,34.87 11.44,1 21.99,-13 23.59,-31.26"
         style="fill:#1a1d3d;fill-opacity:1;fill-rule:nonzero;stroke:none"
         id="path122" /><path
         d="m 2994.92,3923.43 -25.42,2.53 15.43,-16.19 z"
         style="fill:#1a1d3d;fill-opacity:1;fill-rule:nonzero;stroke:none"
         id="path124" /><path
         d="m 2996.97,3924.58 -12.5,9.7 1.3,-14.51 -16.27,-6.32 13.18,-9.84 14.29,20.97"
         style="fill:#1a1d3d;fill-opacity:1;fill-rule:nonzero;stroke:none"
         id="path126" /><path
         d="m 3184.57,3899.3 c 0.67,-18.32 -8.08,-33.52 -19.55,-33.94 -11.47,-0.42 -21.31,14.09 -21.98,32.41 -0.68,18.32 8.07,33.52 19.54,33.94 11.47,0.42 21.32,-14.09 21.99,-32.41"
         style="fill:#1a1d3d;fill-opacity:1;fill-rule:nonzero;stroke:none"
         id="path128" /><path
         d="m 3166.36,3929.25 25.56,-0.13 -17.1,-14.49 z"
         style="fill:#1a1d3d;fill-opacity:1;fill-rule:nonzero;stroke:none"
         id="path130" /><path
         d="m 3166.53,3928.18 12.5,9.7 -1.29,-14.52 16.27,-6.32 -15.41,-6.57 -12.07,17.71"
         style="fill:#1a1d3d;fill-opacity:1;fill-rule:nonzero;stroke:none"
         id="path132" /><path
         d="m 3103.3,3738.71 c 14.36,0 25.69,1.5 26.4,1.59 l -1.61,11.98 c -0.24,-0.04 -24.94,-3.28 -46.68,-0.01 -20.37,3.05 -33.52,17.13 -33.65,17.28 l -8.94,-8.15 c 0.65,-0.71 16.05,-17.38 40.79,-21.09 8.01,-1.2 16.26,-1.6 23.69,-1.6"
         style="fill:#f0a093;fill-opacity:1;fill-rule:nonzero;stroke:none"
         id="path134" /><path
         d="m 3029.3,3749.54 c 22.9,9.53 26.59,31.23 26.73,32.15 l -11.92,1.94 c -0.11,-0.66 -2.94,-16.06 -19.46,-22.94 l 4.65,-11.15"
         style="fill:#f0a093;fill-opacity:1;fill-rule:nonzero;stroke:none"
         id="path136" /><path
         d="m 2860.91,3508.22 242.89,-175.82 94.71,206.41 c 8.41,-2.92 13.61,-5.1 22.36,-7.31 l 22.42,-99.44 c 13.44,-42.02 33.09,-81.84 59.28,-117.32 33.46,-45.33 69.32,-117.82 8.9,-196.17 -32.76,-42.48 -32.92,-135.53 -24.87,-218.08 -105.25,-42.64 -301.49,-16.55 -352.69,-8.69 l -132.52,407.27 59.52,209.15"
         style="fill:#fbce43;fill-opacity:1;fill-rule:nonzero;stroke:none"
         id="path138" /><path
         d="m 3298.81,3106.39 c 0,0 -36.78,-38.27 -129.27,-22.14 0,0 51,-41.67 115.34,-23.52 l 13.93,45.66"
         style="fill:#f7c31c;fill-opacity:1;fill-rule:nonzero;stroke:none"
         id="path140" /><path
         d="m 3090.77,3091.5 c 0,0 -122.88,-41.9 -190.77,10.89 l 33.4,-53.13 c 0,0 96.2,-11.53 157.37,42.24"
         style="fill:#f7c31c;fill-opacity:1;fill-rule:nonzero;stroke:none"
         id="path142" /><path
         d="m 2835.61,3184.13 29.38,114.96 c 16.68,-92.29 11.46,-185.62 75.49,-246.19 1.58,-4.84 3.22,-9.64 4.93,-14.37 15.24,-42.26 17.82,-104.37 24.39,-152.16 -16.59,2.03 -30.07,3.97 -39.04,5.34 l -95.15,292.42"
         style="fill:#f7c31c;fill-opacity:1;fill-rule:nonzero;stroke:none"
         id="path144" /><path
         d="m 2863.82,3804.97 c 0,-8.86 7.18,-16.03 16.03,-16.03 8.86,0 16.03,7.17 16.03,16.03 0,8.85 -7.17,16.03 -16.03,16.03 -8.85,0 -16.03,-7.18 -16.03,-16.03"
         style="fill:#fbce43;fill-opacity:1;fill-rule:nonzero;stroke:none"
         id="path146" /><path
         d="m 2800.6,2925.16 c -25.5,57.62 -59.1,183.45 -58.96,227.59 9.15,0.97 13.85,-7.71 22.23,-5.03 8.37,2.69 10.2,6.45 16.54,10.59 34.55,6.3 59.07,34.19 93.25,41.79 15.72,-85.99 30.33,-172.13 42.84,-258.67 v 0 l -98.23,-57.37 c -0.32,1 -17.24,40.13 -17.67,41.1"
         style="fill:#fbc6bc;fill-opacity:1;fill-rule:nonzero;stroke:none"
         id="path148" /><path
         d="m 2818.27,2884.06 50.88,104.18 c 49.55,-39.26 101.24,-77.11 146.05,-122.42 76.52,-73.71 152.15,-149.46 219.24,-232.14 l -44.08,-43.4 c -137,105.09 -232.98,181.32 -372.09,293.78"
         style="fill:#fbc6bc;fill-opacity:1;fill-rule:nonzero;stroke:none"
         id="path150" /><path
         d="m 3116.61,3812.09 c 3.19,0.77 31.08,7.93 27.16,25.73 -2.74,12.39 -16.48,15.95 -24.4,16.97 l -7.5,41.25 -12.76,-2.32 9.35,-51.42 5.35,-0.07 c 4.93,-0.07 16.15,-1.99 17.3,-7.21 0.68,-3.12 -9.06,-8.28 -17.51,-10.31 l 3.01,-12.62"
         style="fill:#f0a093;fill-opacity:1;fill-rule:nonzero;stroke:none"
         id="path152" /><path
         d="m 2870.89,3523.91 c 27.95,19.19 58.63,31.72 58.63,31.72 53.47,-80.61 176.55,-198.7 181.15,9 0,0 0.49,-0.12 1.23,-0.28 28.22,-10.32 57.84,-17.09 86.61,-25.54 l 7.45,-106.79 -63.66,-152.42 -143.75,5.81 -191.17,170.37 c 0,0 35.56,48.93 63.51,68.13"
         style="fill:#fbce43;fill-opacity:1;fill-rule:nonzero;stroke:none"
         id="path154" /><path
         d="m 2847.11,3510.62 c -0.25,-0.35 7.3,3.91 6.56,4.23 -21.49,-8.9 -82.37,-33.88 -101.19,-57.29 -37.71,-46.91 -56.82,-115.69 -49.79,-171.65 7.78,-61.98 19.85,-106.22 26.33,-164.67 0.52,-4.61 1.24,-7.43 1.69,-12.15 18.62,-9.81 37.52,-18.36 57.86,-20.38 -10.3,60.99 -32.31,158.79 -34.7,213.06 -4.3,97.2 51.41,133.6 93.24,208.85"
         style="fill:#f7c31c;fill-opacity:1;fill-rule:nonzero;stroke:none"
         id="path156" /><path
         d="m 2877.82,3528.51 c 0,-0.07 -33.47,-17.05 -43.56,-21.84 -1.49,-0.71 -2.75,-1.12 -4.57,-2.01 -3.83,-1.86 -21.62,-6.39 -46.94,-23.57 -41.83,-75.24 -40.62,-79.93 -36.31,-177.13 2.39,-54.28 29.59,-154 39.88,-215 35.09,-5.48 72.78,2.58 106.13,10.94 v 0 c -0.26,63.28 -1.28,126.66 -2.97,189.99 -4.96,49.59 -9.96,99.17 -14.94,148.75 -16.85,31.39 20.14,58.48 3.28,89.87"
         style="fill:#fbce43;fill-opacity:1;fill-rule:nonzero;stroke:none"
         id="path158" /><path
         d="m 2869.04,3918.27 c 0,0 171.31,76.34 226.17,154.25 0,0 40.47,-106.41 121.71,-99.29 0,0 62.44,111.61 17.29,185.48 -45.14,73.87 -350.08,39.88 -383.84,-36.74 -33.76,-76.61 18.67,-203.7 18.67,-203.7"
         style="fill:#58291d;fill-opacity:1;fill-rule:nonzero;stroke:none"
         id="path160" /><path
         d="m 2852.74,883.559 h -173.71 l 0.12,27.16 h 173.71 l -0.12,-27.16"
         style="fill:#1a1d3d;fill-opacity:1;fill-rule:nonzero;stroke:none"
         id="path162" /><path
         d="m 2689.56,953.148 8.82,13.684 c -3.57,-4.41 -6.46,-9.051 -8.82,-13.684"
         style="fill:#f6eef0;fill-opacity:1;fill-rule:nonzero;stroke:none"
         id="path164" /><path
         d="m 2679.15,910.719 h 173.71 c 0,0 0.41,21.781 -10.84,43.191 -7.42,14.09 -21.4,23.77 -37.12,26.289 -32.96,5.262 -58.6,3.949 -76.25,1.223 -16.83,-2.621 -31.34,-13.113 -39.09,-28.274 v 0 c -10.81,-21.168 -10.41,-42.429 -10.41,-42.429"
         style="fill:#2a3b93;fill-opacity:1;fill-rule:nonzero;stroke:none"
         id="path166" /><path
         d="m 3510.68,883.559 h -285.47 l 0.2,27.16 h 285.47 l -0.2,-27.16"
         style="fill:#1a1d3d;fill-opacity:1;fill-rule:nonzero;stroke:none"
         id="path168" /><path
         d="m 3225.21,910.719 h 285.67 c 0,0 -0.73,24.441 -10.68,37.64 -9.95,13.211 -143.51,37.86 -164.93,41.969 0,0 -3.82,-14.09 -25.5,-17.898 -21.68,-3.821 -67.53,25.14 -67.53,25.14 l -4.9,2.63 -12.13,-89.481"
         style="fill:#2a3b93;fill-opacity:1;fill-rule:nonzero;stroke:none"
         id="path170" /><path
         d="m 3179.93,3970.24 c -16.89,0.3 -32.65,-1.47 -48.72,-5.59 -6.75,-1.73 -13.5,2.82 -14.6,9.69 l -0.01,0.03 c -0.93,5.74 2.36,11.51 7.92,13.26 18.63,5.88 37.55,8.07 56.76,6.49 5.84,-0.49 10.31,-5.46 10.62,-11.3 v 0 c 0.37,-6.86 -5.11,-12.71 -11.97,-12.58"
         style="fill:#58291d;fill-opacity:1;fill-rule:nonzero;stroke:none"
         id="path172" /><path
         d="m 3018.38,3946.16 c -18.82,-0.54 -36.2,-3.39 -53.82,-8.95 -6.64,-2.1 -13.61,2.15 -15.06,8.95 l -0.34,1.57 c -1.22,5.7 1.79,11.64 7.25,13.68 20.11,7.55 40.75,11.01 61.92,10.26 5.85,-0.21 10.58,-4.95 11.19,-10.78 l 0.16,-1.54 c 0.71,-6.83 -4.45,-12.99 -11.3,-13.19"
         style="fill:#58291d;fill-opacity:1;fill-rule:nonzero;stroke:none"
         id="path174" /><path
         d="m 3204.17,2669.89 c 0,0 -47.26,-11.72 -42.53,-57.54 l 27.31,-21.15 24.03,-6.93 7.97,65.8 -16.78,19.82"
         style="fill:#fbc6bc;fill-opacity:1;fill-rule:nonzero;stroke:none"
         id="path176" /><path
         d="m 3449.07,2639.77 c 0,0 26.94,24.62 74.6,20.04 l 0.61,-20.04 -66.81,-31.98 -8.4,31.98"
         style="fill:#fbc6bc;fill-opacity:1;fill-rule:nonzero;stroke:none"
         id="path178" /><path
         d="m 5001.89,3808.55 c 18.25,328.24 -78.44,376.11 -78.44,376.11 l -157.05,-29.78 -147.83,51.09 c 0,0 -198.79,-69.18 -109.03,-397.42 0,0 -138.82,-249.08 57.38,-368.38 h 188.8 188.79 c 196.2,119.3 57.38,368.38 57.38,368.38"
         style="fill:#1a1d3d;fill-opacity:1;fill-rule:nonzero;stroke:none"
         id="path180" /><path
         d="m 4805.01,3564.41 c -14.89,11.28 -56.65,23.93 -62.3,22.22 -5.21,2.74 -48.6,-1.88 -65.34,-10.17 -49.67,-24.61 -98.66,-39.32 -136.91,-58.39 8.21,-24.73 13.16,-51.92 19.46,-73.9 11.03,-38.5 18.56,-76.4 25.04,-114.88 l 132.35,-11.95 256.24,-24.18 c 50.59,-4.77 58.68,59.96 58.68,59.96 8.43,90.61 -136.57,142.65 -227.22,211.29"
         style="fill:#f7916f;fill-opacity:1;fill-rule:nonzero;stroke:none"
         id="path182" /><path
         d="m 3945.81,3264.23 c -3.51,8.57 -9.54,19.75 -15.29,31.51 -18.64,38.05 6.97,41.61 6.97,41.61 l 26.59,-41.71 20.75,-31.18 c 20.96,-19.02 55.09,-84.76 55.09,-84.76 l -24.94,-27.11 -32.37,2.44 c -1.25,-0.23 -2.46,-0.64 -3.79,-0.58 l -56.91,5.16 -0.04,0.01 v 0 l -76.55,6.94 c -9.32,0.45 -17.74,2.85 -17.29,12.17 l 0.08,1.71 c 0.44,9.33 9.04,10.33 18.36,9.88 l 32.78,-0.07 -62.62,5.69 c -9.33,0.45 -17.75,2.84 -17.3,12.17 l 0.08,1.71 c 0.45,9.32 9.04,10.32 18.36,9.87 l 6.5,-0.01 -34.36,4.98 c -9.29,0.95 -17.57,3.79 -16.62,13.07 l 0.18,1.71 c 0.93,9.29 9.57,9.82 18.85,8.88 l 47.09,-2.61 -33.97,8.61 c -9.14,1.9 -17.08,5.59 -15.18,14.73 l 0.35,1.68 c 1.91,9.13 10.55,8.77 19.69,6.86 l 116.53,-18.73 c 6.79,1.15 13.1,3.22 18.98,5.37"
         style="fill:#f7916f;fill-opacity:1;fill-rule:nonzero;stroke:none"
         id="path184" /><path
         d="m 4540.46,3374.98 c 0,0 -45.62,-230.23 -149.37,-302.95 -103.75,-72.72 -406.33,91.93 -406.33,91.93 l 14.28,56.79 c 0,0 277.09,-66.91 319.86,-50.61 42.77,16.29 95.73,223.64 95.73,223.64 l 125.83,-18.8"
         style="fill:#f7916f;fill-opacity:1;fill-rule:nonzero;stroke:none"
         id="path186" /><path
         d="m 4319.96,3329.95 c 0,0 143.7,204.97 283.44,214.75 -0.93,-6.59 -49.94,-35.25 -49.94,-35.25 l -36.98,-95.39 8.71,-170 14.55,-4.57 c -20.21,-30.18 -35.39,-49.61 -35.39,-49.61 0,0 -96.07,37.53 -184.39,140.07"
         style="fill:#4db4aa;fill-opacity:1;fill-rule:nonzero;stroke:none"
         id="path188" /><path
         d="m 4451.17,3238.82 -13.39,-29.39 c 0,0 -123.03,45.49 -132.7,109.77 l 17.64,28.81 c 0,0 42.17,-61.16 128.45,-109.19"
         style="fill:#4db4aa;fill-opacity:1;fill-rule:nonzero;stroke:none"
         id="path190" /><path
         d="m 4469.17,2680.18 -23.19,-98.6 -64.74,-775.76 -5.39,-845.691 86.02,8.82 86.89,903.341 54.48,883.19 -134.07,-75.3"
         style="fill:#f9af7f;fill-opacity:1;fill-rule:nonzero;stroke:none"
         id="path192" /><path
         d="m 4573.26,2468.26 44.17,17.56 -3.03,-95.41 -40.72,23.44 c -0.49,34.56 -0.42,54.41 -0.42,54.41"
         style="fill:#5f96ba;fill-opacity:1;fill-rule:nonzero;stroke:none"
         id="path194" /><path
         d="m 4376.52,1823.6 c 0,0 -0.05,7.66 -1.34,21.45 -44.96,479.08 41.21,663.07 94.01,910.43 v 0 l 137.33,2.44 c 0,0 89.54,-87.72 86.9,-202.71 -0.47,-20.73 -4.62,-58.52 -11.09,-106.45 l -50.97,42.59 -13.93,-5.53 0.05,1.65 c 0,0 -36.09,15.62 -57.62,38.11 0,0 -0.49,-49.4 13.39,-111.49 l 0.43,-0.24 c 1.27,-89.45 6.27,-277.63 25.75,-476.85 -14.05,-80.3 -23.94,-135.09 -23.94,-135.09 0,0 22.89,-106.46 14.66,-198.03 -8.25,-91.58 -117.94,-602.54 -117.94,-602.54 0,0 -30.15,-20.551 -99.07,5.95 0,0 -18.86,519.61 3.38,816.31"
         style="fill:#21456b;fill-opacity:1;fill-rule:nonzero;stroke:none"
         id="path196" /><path
         d="m 4559.86,2525.58 c 21.53,-22.49 57.62,-38.11 57.62,-38.11 l -0.05,-1.65 -44.17,-17.56 c 0,0 -0.07,-19.85 0.42,-54.41 l -0.43,0.24 c -13.88,62.09 -13.39,111.49 -13.39,111.49"
         style="fill:#152c3f;fill-opacity:1;fill-rule:nonzero;stroke:none"
         id="path198" /><path
         d="m 4573.26,2468.26 58.1,23.09 50.97,-42.59 c -18.88,-140.11 -57.62,-367.28 -82.9,-511.76 -27.01,276.2 -26.17,531.26 -26.17,531.26"
         style="fill:#152c3f;fill-opacity:1;fill-rule:nonzero;stroke:none"
         id="path200" /><path
         d="m 4631.36,2737.92 98.66,-1100.61 85.35,-637.849 79.19,-5.18 -8.07,663.099 -30.33,1005.73 -224.8,74.81"
         style="fill:#f9af7f;fill-opacity:1;fill-rule:nonzero;stroke:none"
         id="path202" /><path
         d="m 4821.94,2746.78 c 0,0 83.13,-54.67 108.85,-205.4 37.31,-218.65 -29.3,-707.21 -29.3,-707.21 0,0 36.44,-94.91 40.14,-186.78 3.7,-91.87 -41.14,-619.3 -41.14,-619.3 0,0 -21.61,-19.47 -93.39,-2.13 0,0 -78.08,508.31 -94.47,805.4 0,0 -70.25,351.96 -91.34,613.34 l -31.14,349.89 231.79,-47.81"
         style="fill:#21456b;fill-opacity:1;fill-rule:nonzero;stroke:none"
         id="path204" /><path
         d="m 4916.73,973.582 c -0.44,3.309 0.15,19.387 1.23,41.198 0.58,11.89 -8.91,21.92 -20.81,21.92 h -89.45 c -12.3,0 -21.92,-10.59 -20.75,-22.82 l 3.16,-32.95 c -17.35,-9.239 -29.6,-31.86 -29.53,-58.43 l 0.09,-38.941 h 175.97 l -0.1,38.941 c -0.05,21.09 -7.91,39.66 -19.81,51.082"
         style="fill:#151f25;fill-opacity:1;fill-rule:nonzero;stroke:none"
         id="path206" /><path
         d="m 4494.35,953.449 c -2.02,13.039 -6.66,36.481 -9.47,50.321 -1.18,5.88 -7.07,9.54 -12.85,7.97 -11.47,-3.12 -30.24,-7.45 -46,-7.45 -24.61,0 -44.4,10.57 -59.82,6.89 C 4350.8,1007.5 4343.7,972 4343.7,972 c -34.05,-13.191 -81.03,-12.41 -81.03,-12.41 0,0 -4.79,-0.199 -12.06,-0.82 6.67,-9.918 13.23,-23.571 17.14,-41.661 h 227.79 c 0.29,12.871 0.2,27.321 -1.19,36.34"
         style="fill:#151f25;fill-opacity:1;fill-rule:nonzero;stroke:none"
         id="path208" /><path
         d="m 4267.75,917.109 c -3.91,18.09 -10.47,31.743 -17.14,41.661 -10.87,-0.93 -27.48,-2.84 -43.11,-6.7 -26.07,-6.441 -31,-34.961 -31,-34.961 l -0.35,-27.379 h 95.02 223.18 c 0,0 0.85,12.649 1.19,27.379 h -227.79"
         style="fill:#151f25;fill-opacity:1;fill-rule:nonzero;stroke:none"
         id="path210" /><path
         d="m 4680.08,3644.58 c 0,0 -54.55,169.37 -46.87,222.2 l -9.43,209.79 c 7.67,52.84 41.06,104.2 89.82,105.32 l 119.64,2.76 c 48.76,1.12 94.26,-51.77 86.57,-104.61 l -67.59,-308.63 c -7.69,-52.85 -46.83,-122.8 -172.14,-126.83"
         style="fill:#e2674a;fill-opacity:1;fill-rule:nonzero;stroke:none"
         id="path212" /><path
         d="m 4678.49,3644.4 -3.2,-0.34 c -70.41,-1.63 -127.04,56.93 -128.66,127.35 l -18.92,244.97 c -1.44,62.78 48.74,115.32 111.52,116.77 l 157.43,3.63 c 18.01,0.41 55.14,-13.62 55.56,-31.63 l -19.79,-278.06 c 2.23,-96.96 -56.98,-180.45 -153.94,-182.69"
         style="fill:#f7916f;fill-opacity:1;fill-rule:nonzero;stroke:none"
         id="path214" /><path
         d="m 4731.62,3904.09 c -1.6,-18.27 6.38,-33.88 17.81,-34.89 11.44,-0.99 22.01,13.01 23.6,31.27 1.59,18.27 -6.39,33.89 -17.83,34.89 -11.43,0.99 -21.99,-13.01 -23.58,-31.27"
         style="fill:#1a1d3d;fill-opacity:1;fill-rule:nonzero;stroke:none"
         id="path216" /><path
         d="m 4757.77,3931.23 25.43,2.52 -15.44,-16.19 z"
         style="fill:#1a1d3d;fill-opacity:1;fill-rule:nonzero;stroke:none"
         id="path218" /><path
         d="m 4755.72,3932.38 12.5,9.7 -1.3,-14.51 16.28,-6.32 -13.18,-9.85 -14.3,20.98"
         style="fill:#1a1d3d;fill-opacity:1;fill-rule:nonzero;stroke:none"
         id="path220" /><path
         d="m 4581.83,3905.34 c -0.68,-18.33 8.08,-33.52 19.55,-33.94 11.47,-0.43 21.32,14.09 21.99,32.41 0.67,18.32 -8.08,33.52 -19.55,33.94 -11.48,0.43 -21.32,-14.09 -21.99,-32.41"
         style="fill:#1a1d3d;fill-opacity:1;fill-rule:nonzero;stroke:none"
         id="path222" /><path
         d="m 4600.04,3935.3 -25.57,-0.13 17.11,-14.5 z"
         style="fill:#1a1d3d;fill-opacity:1;fill-rule:nonzero;stroke:none"
         id="path224" /><path
         d="m 4599.87,3934.22 -12.51,9.7 1.3,-14.51 -16.28,-6.32 15.41,-6.58 12.08,17.71"
         style="fill:#1a1d3d;fill-opacity:1;fill-rule:nonzero;stroke:none"
         id="path226" /><path
         d="m 4725.16,3490.93 v 0 c -37.37,1.2 -66.69,32.46 -65.49,69.82 l 5.38,168.44 135.3,-4.32 -5.39,-168.45 c -1.19,-37.36 -32.44,-66.68 -69.8,-65.49"
         style="fill:#f7916f;fill-opacity:1;fill-rule:nonzero;stroke:none"
         id="path228" /><path
         d="m 4444.32,3114.08 c -60.43,78.37 -24.57,150.87 8.89,196.2 26.19,35.5 45.85,75.33 59.3,117.34 l 49.95,99.55 89.56,-199.22 242.94,175.85 59.53,-209.19 -132.55,-547.83 c -51.21,-7.86 -247.48,-33.96 -352.75,8.7 8.06,82.55 7.89,316.11 -24.87,358.6"
         style="fill:#5bc5bc;fill-opacity:1;fill-rule:nonzero;stroke:none"
         id="path230" /><path
         d="m 4453.83,3101.99 c 0,0 36.78,-38.28 129.29,-22.15 0,0 -51.01,-41.67 -115.36,-23.52 l -13.93,45.67"
         style="fill:#4db4aa;fill-opacity:1;fill-rule:nonzero;stroke:none"
         id="path232" /><path
         d="m 4661.9,3087.1 c 0,0 122.9,-41.91 190.8,10.88 l -33.4,-53.13 c 0,0 -96.21,-11.53 -157.4,42.25"
         style="fill:#4db4aa;fill-opacity:1;fill-rule:nonzero;stroke:none"
         id="path234" /><path
         d="m 4895.52,3506.59 0.33,-0.22 -0.89,-2.57 c 0,0 102.63,-86.68 117.13,-185.58 8.1,-55.22 13.53,-140.16 16.77,-204.43 -22.38,-8.72 -52.81,-14.5 -96.55,-12.73 -0.52,2.05 -1.04,4.09 -1.57,6.14 -13.3,52.05 -26.73,107.18 -40.08,165.76 l -20.73,137.43 25.59,96.2"
         style="fill:#5bc5bc;fill-opacity:1;fill-rule:nonzero;stroke:none"
         id="path236" /><path
         d="m 4894.96,3503.8 0.89,2.57 81.43,-51.21 c 39.46,-27.65 84.68,-97.12 87.36,-145.23 2.97,-53.29 7.33,-104.17 12.67,-152.64 0.42,-3.82 0.88,-7.54 1.32,-11.34 -11.51,-10.45 -26.13,-22.95 -49.77,-32.16 -3.24,64.27 -8.67,149.21 -16.77,204.43 -14.5,98.9 -117.13,185.58 -117.13,185.58"
         style="fill:#4db4aa;fill-opacity:1;fill-rule:nonzero;stroke:none"
         id="path238" /><path
         d="m 4919.73,3150.92 -32.01,143.81 c -16.68,-92.31 -11.45,-185.66 -75.5,-246.24 -1.58,-4.85 -3.22,-9.64 -4.93,-14.38 -15.24,-42.25 -17.83,-244.38 -24.4,-292.18 16.6,2.03 30.08,3.96 39.05,5.35 l 97.79,403.64"
         style="fill:#4db4aa;fill-opacity:1;fill-rule:nonzero;stroke:none"
         id="path240" /><path
         d="m 4741.68,4055.93 c 0,0 36.34,-43.78 73.11,-82.31 39.5,-41.37 45.38,-100.49 45.38,-100.49 0,0 20.27,56.21 58.06,49.3 0,0 82.64,140.74 35.32,229.21 -47.3,88.48 -282.67,108.65 -360.02,39.12 -76.45,-68.71 -103.25,-85.05 -65.84,-212.32 0,0 40.97,15.73 121.08,44.66 81.71,29.5 92.91,32.83 92.91,32.83"
         style="fill:#1a1d3d;fill-opacity:1;fill-rule:nonzero;stroke:none"
         id="path242" /><path
         d="m 4603.4,3544.7 c 0,0 26.17,-183.38 54.43,-193.21 28.26,-9.82 219.95,168.09 219.95,168.09 0,0 9.72,-6.4 18.07,-13.21 8.35,-6.81 5.28,-114.74 5.28,-114.74 0,0 -138.85,-138.03 -251.9,-138.03 -113.05,0 -108.77,247.4 -108.77,247.4 l 62.94,43.7"
         style="fill:#5bc5bc;fill-opacity:1;fill-rule:nonzero;stroke:none"
         id="path244" /><path
         d="m 4668.49,3803.07 c -3.2,0.75 -31.09,7.93 -27.17,25.72 2.75,12.4 16.48,15.96 24.41,16.97 l 7.49,41.26 12.78,-2.32 -9.37,-51.42 -5.34,-0.08 c -4.94,-0.07 -16.15,-1.98 -17.31,-7.2 -0.68,-3.12 9.07,-8.29 17.51,-10.32 l -3,-12.61"
         style="fill:#e2674a;fill-opacity:1;fill-rule:nonzero;stroke:none"
         id="path246" /><path
         d="m 4415.74,3235.21 c 0,0 28.42,278.91 187.66,309.49 -0.95,-6.59 -46.16,-53.8 -46.16,-53.8 l -43.91,-80.8 8.05,-170.04 14.53,-4.62 c -20.31,-30.1 -35.59,-49.47 -35.59,-49.47 0,0 3.35,-53.64 -84.58,49.24"
         style="fill:#5bc5bc;fill-opacity:1;fill-rule:nonzero;stroke:none"
         id="path248" /><path
         d="m 4863.48,3888.25 c 0,0 -0.44,0.72 -1.25,2.16 -0.41,-0.43 -0.84,-0.9 -1.26,-1.34 16.47,26.59 42.03,40.63 61.06,31.95 21.69,-9.9 26.68,-45.54 11.15,-79.61 -15.52,-34.07 -45.69,-53.66 -67.38,-43.76 -2.14,0.97 -4.12,2.2 -5.93,3.65 -12.23,9.8 -16.83,29.87 -12.76,52.07 8.63,11.86 19.99,24.19 30.72,34.75 l -14.35,0.13"
         style="fill:#e2674a;fill-opacity:1;fill-rule:nonzero;stroke:none"
         id="path250" /><path
         d="m 4860.97,3889.07 c 0.42,0.44 0.85,0.91 1.26,1.34 0.81,-1.44 1.25,-2.16 1.25,-2.16 l 14.35,-0.13 c -10.73,-10.56 -22.09,-22.89 -30.72,-34.75 1.43,7.82 3.9,15.88 7.54,23.88 1.9,4.17 4.02,8.11 6.32,11.82"
         style="fill:#e2674a;fill-opacity:1;fill-rule:nonzero;stroke:none"
         id="path252" /><path
         d="m 4888.89,3800.69 c 0,-8.85 -7.18,-16.03 -16.03,-16.03 -8.86,0 -16.03,7.18 -16.03,16.03 0,8.86 7.17,16.04 16.03,16.04 8.85,0 16.03,-7.18 16.03,-16.04"
         style="fill:#4db4aa;fill-opacity:1;fill-rule:nonzero;stroke:none"
         id="path254" /><path
         d="m 4463.36,2728.95 c 0,0 133.94,-56.57 374.55,4.53 l -13.84,22.58 c 0,0 -273.3,-42.87 -354.37,4.92 l -6.34,-32.03"
         style="fill:#151f25;fill-opacity:1;fill-rule:nonzero;stroke:none"
         id="path256" /><path
         d="m 4949.39,3472.69 c 0,0 -66.44,56.17 -102.59,63.02"
         style="fill:#4db4aa;fill-opacity:1;fill-rule:nonzero;stroke:none"
         id="path258" /><path
         d="m 4648.95,2687.92 h -62.77 c -4.91,0 -8.89,3.98 -8.89,8.89 v 49.77 c 0,4.91 3.98,8.9 8.89,8.9 h 62.77 c 4.92,0 8.9,-3.99 8.9,-8.9 v -49.77 c 0,-4.91 -3.98,-8.89 -8.9,-8.89"
         style="fill:#b8b9ca;fill-opacity:1;fill-rule:nonzero;stroke:none"
         id="path260" /><path
         d="m 4926.21,3103.15 1.64,-32.25 c 0,0 131.14,-2.96 163.78,53.26 l -5.82,33.28 c 0,0 -61.71,-41.36 -159.6,-54.29"
         style="fill:#4db4aa;fill-opacity:1;fill-rule:nonzero;stroke:none"
         id="path262" /><path
         d="m 4618.57,3739.54 c -1.66,5.87 -2.86,11.31 -3.66,15.56 -0.72,3.92 3.09,7.11 6.81,5.68 6.83,-2.64 17.35,-6.38 29.38,-9.58 15.84,-4.21 49.75,-1.82 65.73,-0.35 3.94,0.36 6.78,-3.7 5.05,-7.26 -2.21,-4.6 -5.49,-10.71 -9.71,-17.1 -16.12,0.24 -45.35,1.08 -60.8,3.94 -9.82,1.83 -22.13,5.54 -32.8,9.11"
         style="fill:#ffffff;fill-opacity:1;fill-rule:nonzero;stroke:none"
         id="path264" /><path
         d="m 4669.84,3711.58 c 10.83,2.27 23.42,0.92 30.42,-0.18 -10.6,-11.27 -24.35,-20.35 -41.21,-19.54 -3.75,0.18 -7.1,1.23 -10.28,2.63 5.38,7.36 12.89,15.37 21.07,17.09"
         style="fill:#ffffff;fill-opacity:1;fill-rule:nonzero;stroke:none"
         id="path266" /><path
         d="m 4618.57,3739.54 c 10.67,-3.57 22.98,-7.28 32.8,-9.11 15.45,-2.86 44.68,-3.7 60.8,-3.94 -3.34,-5.06 -7.37,-10.25 -11.91,-15.09 -7,1.1 -19.59,2.45 -30.42,0.18 -8.18,-1.72 -15.69,-9.73 -21.07,-17.09 -16.15,7.08 -25.32,27.9 -30.2,45.05"
         style="fill:#ffffff;fill-opacity:1;fill-rule:nonzero;stroke:none"
         id="path268" /><path
         d="m 4801.52,3949.58 c -1.61,0 -3.26,0.39 -4.79,1.2 -26.33,13.91 -59.45,12.39 -59.77,12.39 -5.69,-0.23 -10.51,4.09 -10.8,9.75 -0.29,5.66 4.04,10.5 9.71,10.81 1.58,0.07 39.02,1.86 70.47,-14.76 5.03,-2.65 6.95,-8.88 4.28,-13.9 -1.83,-3.49 -5.4,-5.49 -9.1,-5.49"
         style="fill:#1a1d3d;fill-opacity:1;fill-rule:nonzero;stroke:none"
         id="path270" /><path
         d="m 4568.36,3961.01 c -4.03,0 -7.86,2.38 -9.51,6.32 -2.19,5.24 0.27,11.25 5.51,13.45 1.28,0.55 32.27,13.35 64.41,6.63 5.57,-1.16 9.14,-6.61 7.97,-12.17 -1.15,-5.56 -6.65,-9.09 -12.17,-7.97 -25.74,5.38 -52.01,-5.36 -52.27,-5.47 -1.29,-0.54 -2.63,-0.79 -3.94,-0.79"
         style="fill:#1a1d3d;fill-opacity:1;fill-rule:nonzero;stroke:none"
         id="path272" /><path
         d="m 3851.61,3248.23 108.97,71.11 c 0,0 73.01,-49.99 71.88,-51.22 -1.12,-1.23 -136.05,-67.61 -137.72,-67.6 -1.67,0 -43.13,47.71 -43.13,47.71"
         style="fill:#dae1e3;fill-opacity:1;fill-rule:nonzero;stroke:none"
         id="path274" /><path
         d="m 3696.84,3101.45 c 0,0 29.38,128.47 71.46,202.51 0,0 151.02,-65.61 185.82,-56.23 34.81,9.38 143.84,98.09 143.84,98.09 l 45.99,-23.78 c 0,0 -81.45,-78.09 -204.46,-134.86 -123.02,-56.78 -242.65,-85.73 -242.65,-85.73"
         style="fill:#eef2f4;fill-opacity:1;fill-rule:nonzero;stroke:none"
         id="path276" /><path
         d="m 3318.18,2654.66 c -44.74,-14.84 -43.45,-75.84 -40.93,-100.84 0.64,-6.3 1.99,-12.46 3.99,-18.46 l 84,-253.17 c 2.05,-6.17 7.5,-10.55 13.97,-11.17 12.51,-1.23 35.07,-1.23 63.54,8.22 28.48,9.45 46.56,22.94 55.86,31.39 4.82,4.38 6.57,11.14 4.51,17.32 l -84,253.17 c -1.99,6 -4.59,11.75 -7.84,17.17 -12.93,21.55 -48.36,71.22 -93.1,56.37"
         style="fill:#26263d;fill-opacity:1;fill-rule:nonzero;stroke:none"
         id="path278" /><path
         d="m 3346.89,2637.42 -41.41,-13.74 -38.56,116.2 c -1.89,5.69 1.19,11.83 6.88,13.72 l 20.8,6.9 c 5.7,1.89 11.84,-1.19 13.73,-6.88 l 38.56,-116.2"
         style="fill:#26263d;fill-opacity:1;fill-rule:nonzero;stroke:none"
         id="path280" /><path
         d="m 3284.28,2526.19 50.66,-152.68 c 32.01,3.2 82.78,13.61 138.01,45.38 l -50.67,152.68 c -55.22,-31.77 -105.99,-42.19 -138,-45.38"
         style="fill:#e4222d;fill-opacity:1;fill-rule:nonzero;stroke:none"
         id="path282" /><path
         d="m 5579.43,2556.32 c -44.73,-14.85 -43.44,-75.85 -40.92,-100.85 0.63,-6.29 1.99,-12.45 3.98,-18.46 l 84.01,-253.16 c 2.04,-6.18 7.49,-10.56 13.97,-11.18 12.51,-1.22 35.07,-1.22 63.54,8.22 28.47,9.45 46.56,22.94 55.85,31.4 4.82,4.37 6.57,11.13 4.52,17.31 l -84.01,253.16 c -1.99,6.01 -4.58,11.76 -7.84,17.18 -12.92,21.55 -48.36,71.22 -93.1,56.38"
         style="fill:#26263d;fill-opacity:1;fill-rule:nonzero;stroke:none"
         id="path284" /><path
         d="m 5608.14,2539.07 -41.4,-13.74 -38.57,116.2 c -1.88,5.69 1.19,11.83 6.89,13.72 l 20.8,6.9 c 5.69,1.89 11.83,-1.19 13.73,-6.88 l 38.55,-116.2"
         style="fill:#26263d;fill-opacity:1;fill-rule:nonzero;stroke:none"
         id="path286" /><path
         d="m 5545.54,2427.84 50.66,-152.68 c 32,3.2 82.78,13.61 138.01,45.39 l -50.67,152.67 c -55.22,-31.77 -105.99,-42.18 -138,-45.38"
         style="fill:#e4222d;fill-opacity:1;fill-rule:nonzero;stroke:none"
         id="path288" /><path
         d="m 5814.41,2573.06 -13.4,11.15 c -6.98,5.8 -15.97,8.59 -24.99,7.76 l -0.14,-0.01 -2.67,28.95 c -0.65,7.19 -7.02,12.48 -14.21,11.82 l -29.42,-2.7 c -7.19,-0.66 -12.48,-7.03 -11.82,-14.22 l 2.66,-28.94 -0.14,-0.02 c -9.03,-0.83 -17.36,-5.21 -23.15,-12.18 l -11.15,-13.42 c -5.8,-6.96 -8.6,-15.95 -7.77,-24.98 l 30.7,-334.05 c 1.72,-18.81 18.36,-32.65 37.17,-30.92 l 80.3,7.38 c 18.8,1.72 32.64,18.37 30.91,37.17 l -30.69,334.05 c -0.83,9.03 -5.21,17.36 -12.19,23.16"
         style="fill:#eef2f4;fill-opacity:1;fill-rule:nonzero;stroke:none"
         id="path290" /><path
         d="m 5846.58,2332.43 -148.39,-13.63 -14.31,155.88 148.38,13.63 14.32,-155.88"
         style="fill:#204155;fill-opacity:1;fill-rule:nonzero;stroke:none"
         id="path292" /><path
         d="m 4618.84,2928.27 c 0.7,39.31 -30.72,71.87 -70.04,72.57 -39.31,0.7 -71.87,-30.71 -72.57,-70.02 l -1.63,-91.55 142.61,-2.54 z m -176.69,3.15 c 1.03,58.11 49.15,104.54 107.26,103.51 58.11,-1.04 104.55,-49.15 103.51,-107.26 l -2.24,-125.63 -210.77,3.75 2.24,125.63"
         style="fill:#e3b384;fill-opacity:1;fill-rule:nonzero;stroke:none"
         id="path294" /><path
         d="m 4537.62,2871.69 217.17,-3.86 -31.33,-518.62 -195.09,3.48 -195.09,3.47 -12.84,519.41 217.18,-3.88"
         style="fill:#e3b384;fill-opacity:1;fill-rule:nonzero;stroke:none"
         id="path296" /><path
         d="m 4460.47,2913.28 c -32.25,-10.7 -31.32,-54.67 -29.49,-72.68 0.45,-4.54 1.42,-8.98 2.86,-13.31 l 60.55,-182.47 c 1.48,-4.44 5.4,-7.6 10.06,-8.05 9.03,-0.88 25.29,-0.88 45.8,5.93 20.53,6.81 33.56,16.53 40.27,22.62 3.46,3.16 4.72,8.03 3.25,12.48 l -60.55,182.47 c -1.43,4.32 -3.31,8.47 -5.65,12.38 -9.32,15.53 -34.86,51.33 -67.1,40.63"
         style="fill:#26263d;fill-opacity:1;fill-rule:nonzero;stroke:none"
         id="path298" /><path
         d="m 4481.16,2900.84 -29.84,-9.9 -26.84,80.88 c -1.89,5.68 1.19,11.83 6.89,13.72 l 9.23,3.06 c 5.69,1.89 11.84,-1.19 13.73,-6.88 l 26.83,-80.88"
         style="fill:#26263d;fill-opacity:1;fill-rule:nonzero;stroke:none"
         id="path300" /><path
         d="m 4436.03,2820.68 36.52,-110.05 c 23.07,2.31 59.67,9.82 99.47,32.71 l -36.52,110.05 c -39.8,-22.9 -76.39,-30.41 -99.47,-32.71"
         style="fill:#e4222d;fill-opacity:1;fill-rule:nonzero;stroke:none"
         id="path302" /><path
         d="m 4629.82,2925.35 -9.66,8.03 c -5.02,4.18 -11.5,6.2 -18.01,5.59 h -0.1 l -1.91,20.86 c -0.48,5.18 -5.07,9 -10.26,8.52 l -21.19,-1.94 c -5.18,-0.48 -9,-5.07 -8.52,-10.25 l 1.91,-20.87 -0.1,-0.01 c -6.5,-0.59 -12.51,-3.75 -16.69,-8.78 l -8.03,-9.66 c -4.18,-5.02 -6.2,-11.5 -5.6,-18.01 l 22.13,-240.77 c 1.24,-13.55 13.23,-23.52 26.79,-22.28 l 57.87,5.32 c 13.55,1.24 23.52,13.24 22.28,26.79 l -22.13,240.77 c -0.59,6.5 -3.75,12.51 -8.78,16.69"
         style="fill:#eef2f4;fill-opacity:1;fill-rule:nonzero;stroke:none"
         id="path304" /><path
         d="m 4653.01,2751.92 -106.95,-9.83 -10.32,112.35 106.95,9.83 10.32,-112.35"
         style="fill:#204155;fill-opacity:1;fill-rule:nonzero;stroke:none"
         id="path306" /><path
         d="m 4399.09,2889.51 82.97,-50.11 c 0,0 -9.91,-65.17 -11.1,-64.81 -1.19,0.37 -89.39,69.43 -89.93,70.55 -0.54,1.11 18.06,44.37 18.06,44.37"
         style="fill:#dae1e3;fill-opacity:1;fill-rule:nonzero;stroke:none"
         id="path308" /><path
         d="m 4250.53,2945.87 c 0,0 95.7,21.86 158.99,17.58 0,0 4.84,-122.56 22.4,-142.88 17.56,-20.32 112.37,-64.78 112.37,-64.78 l -1.08,-38.55 c 0,0 -78.75,29.38 -156.65,93.55 -77.9,64.18 -136.03,135.08 -136.03,135.08"
         style="fill:#eef2f4;fill-opacity:1;fill-rule:nonzero;stroke:none"
         id="path310" /><path
         d="m 4644.12,2917.05 c 0.7,39.31 -30.72,71.87 -70.03,72.57 -39.31,0.7 -71.87,-30.71 -72.58,-70.03 l -1.63,-91.54 142.61,-2.54 z m -176.69,3.15 c 1.04,58.11 49.16,104.54 107.27,103.51 58.11,-1.04 104.54,-49.15 103.5,-107.26 l -2.23,-125.63 -210.78,3.75 2.24,125.63"
         style="fill:#fbd2ab;fill-opacity:1;fill-rule:nonzero;stroke:none"
         id="path312" /><path
         d="m 4569.25,2833.99 217.18,-3.87 -31.34,-518.61 -195.09,3.48 -195.09,3.48 -12.84,519.39 217.18,-3.87"
         style="fill:#fbd2ab;fill-opacity:1;fill-rule:nonzero;stroke:none"
         id="path314" /><path
         d="m 4565.5,2484.77 -1.1,46.26 -75.23,-1.78 c -2.28,-0.06 -4.51,1 -5.7,2.95 -0.1,0.16 -0.2,0.32 -0.29,0.5 l 26.63,-49.25 55.69,1.32"
         style="fill:#ffffff;fill-opacity:1;fill-rule:nonzero;stroke:none"
         id="path316" /><path
         d="m 4516,2592.68 -48.06,-1.14 14.72,-9.31 -8.85,-15.6 c 0,0 -8.45,-22.89 14.8,-32.34 l 23.25,0.55 13.25,24.12 14.43,-7.18 -23.54,40.9"
         style="fill:#ffffff;fill-opacity:1;fill-rule:nonzero;stroke:none"
         id="path318" /><path
         d="m 4541.77,2589.2 -42.47,22.52 20.1,36.57 c 0,0 14.81,20.12 36.32,3.11 l 10.42,-16.23 -24.37,-45.97"
         style="fill:#ffffff;fill-opacity:1;fill-rule:nonzero;stroke:none"
         id="path320" /><path
         d="m 4550.56,2660.93 59.06,1.4 16.12,-26.28 14.86,8.21 -21.46,-42.97 -47.62,-0.6 13.64,9.53 -26.35,44.02 c 0,0 -1.53,2.84 -8.25,6.69"
         style="fill:#ffffff;fill-opacity:1;fill-rule:nonzero;stroke:none"
         id="path322" /><path
         d="m 4603.33,2581.26 40.65,24.29 23.49,-37.01 c 0,0 9.45,-19.66 -12.76,-30.33 l -24.55,-0.58 -26.83,43.63"
         style="fill:#ffffff;fill-opacity:1;fill-rule:nonzero;stroke:none"
         id="path324" /><path
         d="m 4599.47,2549.6 0.36,-15.49 52.72,1.24 c 0,0 4.22,-0.24 6.8,2.35 l -23.77,-45.74 c 0,0 -1.73,-4.24 -7.99,-5.73 l -26.05,-0.61 0.39,-16.59 -27.11,39.68 24.65,40.89"
         style="fill:#ffffff;fill-opacity:1;fill-rule:nonzero;stroke:none"
         id="path326" /><path
         d="m 3531.96,2632.65 c -53.12,12.04 -88.28,-49.06 -100.72,-75.3 -3.13,-6.6 -5.47,-13.51 -7.09,-20.63 l -68.14,-300.58 c -1.66,-7.32 1.11,-14.91 7.14,-19.39 11.64,-8.68 33.95,-22.16 67.76,-29.83 33.81,-7.66 59.75,-5.11 74,-2.31 7.37,1.44 13.14,7.09 14.8,14.42 l 68.15,300.58 c 1.61,7.12 2.48,14.36 2.5,21.67 0.09,29.03 -5.29,99.33 -58.4,111.37"
         style="fill:#eef2f4;fill-opacity:1;fill-rule:nonzero;stroke:none"
         id="path328" /><path
         d="m 3550.05,2598.44 -49.17,11.14 31.65,139.61 c 1.33,5.85 7.15,9.51 12.99,8.19 l 27.99,-6.34 c 5.85,-1.33 9.52,-7.15 8.19,-13 l -31.65,-139.6"
         style="fill:#eef2f4;fill-opacity:1;fill-rule:nonzero;stroke:none"
         id="path330" /><path
         d="m 3421.68,2525.83 -41.09,-181.27 c 33.57,-15.96 90.01,-35.99 163.6,-37.55 l 41.1,181.27 c -73.6,1.55 -130.04,21.59 -163.61,37.55"
         style="fill:#3562ac;fill-opacity:1;fill-rule:nonzero;stroke:none"
         id="path332" /><path
         d="m 887.141,3153.39 -140.227,26.16 c -40.273,-199.87 -23.129,-369.67 6.578,-494.05 l 113.613,39.94 c -28.585,223.99 20.036,427.95 20.036,427.95"
         style="fill:#ed8e53;fill-opacity:1;fill-rule:nonzero;stroke:none"
         id="path334" /><path
         d="m 1431.04,2485.59 -235.25,-20.87 c 0.14,-77.71 -5.3,-164.78 -1.1,-273.77 8.71,-226.32 10.55,-583.04 17.97,-810.33 4.99,-152.87 1.01,-296.47 -4.19,-381.401 l 115.94,1.491 c 36.84,304.38 115.08,1153.28 106.63,1484.88"
         style="fill:#1c3a5f;fill-opacity:1;fill-rule:nonzero;stroke:none"
         id="path336" /><path
         d="m 773.27,1010.44 105.171,0.01 c 0,0 382.909,1447.88 363.719,1447.9 l -293.051,6.02 C 949.039,2420.04 773.27,1010.44 773.27,1010.44"
         style="fill:#1c3a5f;fill-opacity:1;fill-rule:nonzero;stroke:none"
         id="path338" /><path
         d="m 1470.2,2480.18 -310.93,-20.44 c 0,-0.45 0.01,-0.94 0.01,-1.39 l 106.08,-3.04 c 6.68,-0.01 -13.62,-159.37 -72.26,-375 4,-94.38 -24.06,-913.56 -19.62,-1012.59 0,0 61.86,-38.46 196.89,0 26.91,266.62 104,1248.78 99.83,1412.46"
         style="fill:#1c3a5f;fill-opacity:1;fill-rule:nonzero;stroke:none"
         id="path340" /><path
         d="m 1431.04,2485.59 c 0,105.22 -111.55,109.39 -249.16,109.39 -137.6,0 -249.146,-4.17 -249.146,-109.39 0,-10.08 1.325,-19.9 3.289,-29.55 -5.386,-57.91 -158.761,-1079.51 -200.519,-1388.32 29.137,-7.7 151.648,-8.45 183.656,0 13.871,49.83 198.44,732.27 212.25,782.39 13.55,49.17 47,170.34 59.45,216.11 23.14,85.1 46.02,160.96 62.17,223.34 114.34,17.3 178.01,103.52 178.01,196.03"
         style="fill:#1c3a5f;fill-opacity:1;fill-rule:nonzero;stroke:none"
         id="path342" /><path
         d="M 943.793,883.559 H 701.051 l 0.172,23.921 h 242.742 l -0.172,-23.921"
         style="fill:#152c3f;fill-opacity:1;fill-rule:nonzero;stroke:none"
         id="path344" /><path
         d="m 1562.59,884.969 h -391.91 c -3.15,0 -5.52,2.871 -4.93,5.961 l 3.43,17.851 h 400.37 l 0.29,-16.429 c 0.08,-4.051 -3.19,-7.383 -7.25,-7.383"
         style="fill:#152c3f;fill-opacity:1;fill-rule:nonzero;stroke:none"
         id="path346" /><path
         d="M 728.613,1000.44 C 712.188,988.352 701.348,968.691 701.27,946.352 l -0.137,-41.223 h 242.75 l 0.137,41.223 c 0.089,28.128 -16.825,52.078 -40.739,61.858 l 17.18,59.51 H 735.504 c -3.313,-34.54 -6.094,-62.65 -6.891,-67.28"
         style="fill:#152c3f;fill-opacity:1;fill-rule:nonzero;stroke:none"
         id="path348" /><path
         d="m 1469.77,969.359 -6.34,1.012 c -66.05,5.777 -87.4,48.219 -93.06,97.349 h -196.89 l 0.48,-48.7 c 0.04,-3.01 -0.02,-6.04 -0.18,-9.05 l -5.4,-105.349 400.66,-1.371 c 6.62,61.441 -44.26,66.109 -99.27,66.109"
         style="fill:#152c3f;fill-opacity:1;fill-rule:nonzero;stroke:none"
         id="path350" /><path
         d="m 2141.16,3265.97 c -0.21,12.29 1.32,29.09 2.19,46.46 2.86,56.2 -30.27,47.15 -30.27,47.15 l -10.66,-64.81 -9.03,-48.93 c -15.65,-34.17 -22.95,-132.27 -22.95,-132.27 l 44.63,-20.06 38.24,19.9 c 1.66,0.37 3.34,0.5 4.93,1.27 l 66.78,36.05 0.04,0.03 v 0 l 89.84,48.49 c 11.14,5.43 20.18,12.76 14.76,23.9 l -1,2.05 c -5.42,11.15 -16.43,7.88 -27.58,2.46 l -39.99,-17.22 73.48,39.67 c 11.15,5.43 20.19,12.76 14.77,23.91 l -1,2.04 c -5.43,11.15 -16.44,7.89 -27.58,2.46 l -7.92,-3.41 39.34,24.04 c 10.84,6.01 19.47,13.81 13.46,24.65 l -1.1,2 c -6.01,10.84 -16.84,6.98 -27.68,0.97 l -56.13,-27.8 36.98,28.27 c 10.17,7.11 17.94,15.76 10.83,25.92 l -1.3,1.87 c -7.11,10.16 -17.47,5.2 -27.63,-1.91 l -132.47,-83.79 c -8.9,-2.15 -17.69,-2.91 -25.98,-3.36"
         style="fill:#ed8e53;fill-opacity:1;fill-rule:nonzero;stroke:none"
         id="path352" /><path
         d="m 1629.62,3281.8 c 17.78,-24.04 208.01,-236.87 208.01,-236.87 51.48,24.63 248.2,158.06 248.2,158.06 46,-22.32 72.41,-88.31 72.41,-88.31 0,0 -102.41,-99.15 -181.97,-154.33 -36.61,-25.39 -74.52,-49.13 -107.17,-64.31 -103.63,-48.19 -330.61,267.71 -330.61,267.71 l 91.13,118.05"
         style="fill:#ed8e53;fill-opacity:1;fill-rule:nonzero;stroke:none"
         id="path354" /><path
         d="m 1485.23,3428.2 20.97,25.39 c -40.06,42.56 -90.28,78.34 -153.31,100.52 v 0 c -21.86,8.37 -46.33,13.55 -46.33,13.55 l -71.33,-92.73 17.04,-24.63 c -5.39,-1.93 -11.06,-3.56 -17.1,-4.7 -1.48,-0.28 -3.14,-0.41 -4.71,-0.62 -52.66,-7.18 -152.14,22.25 -166.54,76.27 -5.99,22.43 -6.14,42.24 -4.24,57.98 -13.03,-8.38 -26.73,-16.98 -40.62,-25.68 l -0.3,0.56 C 954.609,3531.53 903.691,3494.9 863.281,3451.33 l 37.41,-389.02 26.942,-402.76 v -150.52 c 57.394,-21.9 173.197,-57.62 302.827,-51.26 21.86,1.08 44.06,3.21 66.49,6.95 89.98,15.02 141.07,42.93 179.86,91.85 -9.64,140.69 16.97,427.82 13.19,615.21 l 33.32,148.12 -38.09,108.3"
         style="fill:#5a58b1;fill-opacity:1;fill-rule:nonzero;stroke:none"
         id="path356" /><path
         d="m 1333.75,3733.29 c 1.45,6.32 2.42,12.17 3.02,16.71 0.56,4.2 -3.66,7.37 -7.53,5.65 -7.1,-3.17 -18.05,-7.73 -30.65,-11.79 -16.57,-5.35 -52.69,-4.69 -69.71,-4.03 -4.21,0.16 -7,-4.3 -4.97,-7.98 2.61,-4.76 6.43,-11.06 11.26,-17.61 17.09,1.15 48.07,3.67 64.3,7.57 10.31,2.47 23.17,7.1 34.28,11.48"
         style="fill:#ffffff;fill-opacity:1;fill-rule:nonzero;stroke:none"
         id="path358" /><path
         d="m 1280.9,3700.77 c -11.61,1.81 -24.88,-0.33 -32.25,-1.88 11.87,-11.37 26.97,-20.23 44.8,-18.45 3.98,0.4 7.48,1.71 10.78,3.36 -6.13,7.52 -14.54,15.6 -23.33,16.97"
         style="fill:#ffffff;fill-opacity:1;fill-rule:nonzero;stroke:none"
         id="path360" /><path
         d="m 1333.75,3733.29 c -11.11,-4.38 -23.97,-9.01 -34.28,-11.48 -16.23,-3.9 -47.21,-6.42 -64.3,-7.57 3.82,-5.19 8.38,-10.48 13.48,-15.35 7.37,1.55 20.64,3.69 32.25,1.88 8.79,-1.37 17.2,-9.45 23.33,-16.97 16.74,8.42 25.31,31.02 29.52,49.49"
         style="fill:#ffffff;fill-opacity:1;fill-rule:nonzero;stroke:none"
         id="path362" /><path
         d="m 856.465,3443.8 c 2.598,2.13 5.305,4.26 8.008,6.4 v 0.03 l -8.008,-6.43"
         style="fill:#3562ac;fill-opacity:1;fill-rule:nonzero;stroke:none"
         id="path364" /><path
         d="m 1018.76,3554.11 c 0,0 -54.658,-184.9 202.72,-184.9 257.38,0 144.97,179.84 144.97,179.84 l -54.39,17.15 -238.86,21.92 -54.44,-34.01"
         style="fill:#5a58b1;fill-opacity:1;fill-rule:nonzero;stroke:none"
         id="path366" /><path
         d="m 1063.92,3521.25 c 14.83,-55.63 120.02,-85.29 171.25,-75.65 51.23,9.64 79.41,49.69 77.93,89.74 -0.36,9.5 -2.91,20.74 -6.54,32.32 -21.25,11.56 -41.79,23.45 -60.67,36.1 -20.1,13.48 -68.96,24.31 -75.7,21.03 -6.87,3.01 -60.02,-10.26 -79.58,-24.51 -9.89,-7.2 -20.27,-14.19 -30.93,-21.05 -1.9,-15.74 -1.75,-35.55 4.24,-57.98"
         style="fill:#ed8e53;fill-opacity:1;fill-rule:nonzero;stroke:none"
         id="path368" /><path
         d="m 1059.68,3579.23 c 0,0 -45.89,-125.17 131.68,-159.28 177.58,-34.1 149.9,138.44 149.9,138.44 l -34.7,9.27 -152.83,-20.11 -94.05,31.68"
         style="fill:#ed8e53;fill-opacity:1;fill-rule:nonzero;stroke:none"
         id="path370" /><path
         d="m 1107.21,3552.58 c 5.86,-59.59 168.87,-100.77 164.43,-4.76 l -16.7,191.57 -153.67,8.15 c 13.08,-82.84 17.03,-153.09 5.94,-194.96"
         style="fill:#ed8e53;fill-opacity:1;fill-rule:nonzero;stroke:none"
         id="path372" /><path
         d="m 1280.96,3619.09 c 0,0 21.38,178.53 3.56,229.46 l -31.16,209.92 c -17.82,50.92 -60.86,95.41 -109.45,87.11 l -119.2,-20.37 c -48.581,-8.31 -83.487,-69.57 -65.667,-120.49 l 115.447,-295.74 c 17.82,-50.93 81.39,-110.1 206.47,-89.89"
         style="fill:#e0693f;fill-opacity:1;fill-rule:nonzero;stroke:none"
         id="path374" /><path
         d="m 1282.57,3619.23 3.23,0.27 c 70.16,11.99 106.33,89.88 94.34,160.04 l -33.73,318.87 c -3.07,17.95 -20.26,30.12 -38.21,27.05 l -237.96,-40.67 c -17.94,-3.07 -52.06,-24.15 -48.99,-42.1 l 64.3,-273.35 c 16.52,-96.61 100.41,-166.62 197.02,-150.11"
         style="fill:#ed8e53;fill-opacity:1;fill-rule:nonzero;stroke:none"
         id="path376" /><path
         d="m 1341.33,3901.11 c 4.21,-18.05 -1.54,-34.81 -12.83,-37.44 -11.3,-2.64 -23.87,9.86 -28.08,27.9 -4.2,18.05 1.54,34.81 12.84,37.44 11.3,2.64 23.86,-9.85 28.07,-27.9"
         style="fill:#1a1d3d;fill-opacity:1;fill-rule:nonzero;stroke:none"
         id="path378" /><path
         d="m 1179.71,3866.54 c 5.1,-17.8 0.21,-34.84 -10.94,-38.03 -11.15,-3.2 -24.33,8.64 -29.44,26.45 -5.11,17.81 -0.21,34.84 10.94,38.04 11.15,3.21 24.33,-8.64 29.44,-26.46"
         style="fill:#1a1d3d;fill-opacity:1;fill-rule:nonzero;stroke:none"
         id="path380" /><path
         d="m 1333.19,3969.88 c -17.01,1.07 -32.98,-0.01 -49.36,-3.44 -6.88,-1.44 -13.48,3.45 -14.29,10.43 v 0.02 c -0.68,5.84 2.9,11.51 8.58,13.03 19.05,5.07 38.22,6.43 57.51,3.97 5.85,-0.75 10.14,-5.96 10.19,-11.86 v 0 c 0.06,-6.93 -5.72,-12.58 -12.63,-12.15"
         style="fill:#353b4d;fill-opacity:1;fill-rule:nonzero;stroke:none"
         id="path382" /><path
         d="m 1172.12,3940.28 c -18.1,-5.79 -34.14,-13.41 -49.67,-23.73 -5.84,-3.88 -13.79,-1.72 -17.11,4.47 l -0.76,1.43 c -2.78,5.18 -1.52,11.78 3.2,15.29 17.39,12.94 36.43,22.06 57.16,27.26 5.73,1.44 11.64,-1.84 13.86,-7.32 l 0.59,-1.45 c 2.6,-6.42 -0.68,-13.84 -7.27,-15.95"
         style="fill:#353b4d;fill-opacity:1;fill-rule:nonzero;stroke:none"
         id="path384" /><path
         d="m 1050.98,4015.98 c 0,0 124.66,-3.2 207.72,14.6 42.77,9.17 68.43,18.72 83.26,25.84 11.09,5.32 16.44,17.99 12.79,29.73 -8.98,28.83 -27.96,85.48 -50.24,126.78 -13.57,25.17 -48.05,29.27 -67.58,8.39 -24.52,-26.22 -64.82,-57.8 -122.06,-67.27 -103.08,-17.06 -145.432,-20.57 -177.073,-95.16 -31.641,-74.59 33.965,-167.28 76.483,-237.16 l 28.67,7.66 c 0,0 -1.61,45.89 8.03,186.59"
         style="fill:#353b4d;fill-opacity:1;fill-rule:nonzero;stroke:none"
         id="path386" /><path
         d="m 991.875,3765.44 c 21.985,-30.79 55.695,-44.4 75.295,-30.4 1.94,1.39 3.66,2.99 5.17,4.77 13.86,16.35 10.33,48.59 -9.48,76.35 -21.99,30.79 -55.7,44.4 -75.301,30.4 -19.598,-14.01 -17.664,-50.32 4.316,-81.12"
         style="fill:#e0693f;fill-opacity:1;fill-rule:nonzero;stroke:none"
         id="path388" /><path
         d="m 1260.97,3790.77 c 2.32,0.56 22.89,5.81 29.95,17.97 2.51,4.29 3.1,9.07 1.74,13.8 -4.57,15.77 -24.42,17.9 -33.44,18.05 l -15.41,45.56 -10.68,-3.61 18.13,-53.61 4.36,0.31 c 0.23,0.01 22.98,1.34 26.2,-9.83 0.52,-1.8 0.33,-3.34 -0.64,-5.01 -3.96,-6.8 -18.18,-11.54 -22.85,-12.67 l 2.64,-10.96"
         style="fill:#e0693f;fill-opacity:1;fill-rule:nonzero;stroke:none"
         id="path390" /><path
         d="m 950.691,2253.87 c -11.265,0 -18.457,1.14 -18.753,1.19 -5.598,0.95 -9.372,6.26 -8.415,11.86 0.954,5.59 6.262,9.28 11.848,8.43 v 0 c 4.359,-0.74 106.909,-16.44 137.169,93.41 1.51,5.48 7.18,8.68 12.65,7.19 5.47,-1.51 8.7,-7.18 7.18,-12.65 -26.9,-97.66 -105.405,-109.43 -141.679,-109.43"
         style="fill:#152c3f;fill-opacity:1;fill-rule:nonzero;stroke:none"
         id="path392" /><path
         d="m 1431.94,2239.06 c -36.27,0 -114.77,11.78 -141.68,109.44 -1.51,5.47 1.71,11.14 7.19,12.64 5.47,1.53 11.14,-1.71 12.65,-7.18 30.26,-109.84 132.82,-94.14 137.17,-93.41 5.66,0.88 10.9,-2.85 11.84,-8.44 0.94,-5.6 -2.82,-10.91 -8.41,-11.85 -0.29,-0.05 -7.49,-1.2 -18.76,-1.2"
         style="fill:#152c3f;fill-opacity:1;fill-rule:nonzero;stroke:none"
         id="path394" /><path
         d="m 1207.51,3391.76 33.02,40.43 -45.31,15.58 h -29.51 l 41.8,-56.01"
         style="fill:#ed8e53;fill-opacity:1;fill-rule:nonzero;stroke:none"
         id="path396" /><path
         d="m 1207.51,3391.76 -131,198.61 c 0,0 -56.83,-24.25 -98.334,-53.21 l 51.034,-75.87 66.51,-1.92 17.52,-32.91 94.27,-34.7"
         style="fill:#474da9;fill-opacity:1;fill-rule:nonzero;stroke:none"
         id="path398" /><path
         d="m 1207.51,3391.76 136.63,167.29 c 0,0 51,-16.76 84.17,-41.16 l -46.39,-67.56 -53.14,-1.62 -14,-27.73 -107.27,-29.22"
         style="fill:#474da9;fill-opacity:1;fill-rule:nonzero;stroke:none"
         id="path400" /><path
         d="m 1296.95,2464.72 c -155.47,-25.95 -302.243,18.72 -369.317,44.31 l 7.39,-62.82 c 0,0 389.067,-146.53 535.297,27.32 3.42,39.38 5.46,52.65 6.49,83.04 -38.78,-48.92 -89.88,-76.83 -179.86,-91.85"
         style="fill:#5a58b1;fill-opacity:1;fill-rule:nonzero;stroke:none"
         id="path402" /><path
         d="m 871.594,3460.04 c -146.61,-158.07 -162.196,-413.35 -162.196,-413.35 95.915,-89.77 177.899,-66.48 177.899,-66.48 l 14.351,84.82"
         style="fill:#5a58b1;fill-opacity:1;fill-rule:nonzero;stroke:none"
         id="path404" /><path
         d="m 892.094,2963.91 c 0,0 -114.653,-5.74 -192.922,72.24 l 4.891,32.8 c 0,0 136.285,-65.81 190.808,-70.5 l -2.777,-34.54"
         style="fill:#474da9;fill-opacity:1;fill-rule:nonzero;stroke:none"
         id="path406" /><path
         d="m 1045.52,3935.22 c 9.13,-53.94 29.33,-106.04 59.01,-152.21 7.11,-11.05 14.93,-21.97 25.53,-29.85 10.59,-7.87 24.45,-12.4 37.33,-9.25 14.95,3.66 25.59,16.49 39.07,23.84 22.14,12.07 49.52,8.37 73.88,15.08 15.35,4.23 30.82,12.71 46.27,8.84 7.38,-1.85 14.27,-6.49 21.87,-5.94 12.33,0.9 19.24,14.56 21.25,26.61 2.01,12.04 -5.41,30.32 2.77,39.48 l 1.79,-1.32 c 9.41,-10.23 17.99,-28.6 18.73,-42.4 0.75,-13.8 -1.12,-27.6 -1.24,-41.41 -0.15,-16.77 2.26,-33.48 2.19,-50.25 -0.05,-16.77 -2.83,-34.14 -12.29,-48.07 -5.98,-8.81 -14.3,-15.78 -21.38,-23.77 -18.04,-20.36 -29.1,-48.31 -53.55,-60.53 -3.07,-1.53 -6.33,-2.78 -9.74,-3.19 -11.8,-1.42 -22.32,7.16 -33.94,9.67 -12.58,2.72 -25.7,-1.82 -38.5,-0.41 -11.2,1.24 -21.35,6.93 -32.21,9.88 -11.28,3.07 -23.21,3.15 -34.54,6.05 -33.18,8.52 -55.04,38.93 -73.22,67.61 -7.47,11.77 -14.91,23.85 -18.35,37.32 -2.22,8.75 -2.69,17.83 -3.14,26.84 -1.25,24.9 -2.49,49.94 -7.73,74.33 -5.23,24.4 -24.26,49.41 -40.35,68.64"
         style="fill:#353b4d;fill-opacity:1;fill-rule:nonzero;stroke:none"
         id="path408" /><path
         d="m 1248.22,3731.97 c 15.83,1.38 33.96,3.4 45.15,6.09 -11.19,-2.69 -29.32,-4.71 -45.15,-6.09 z m 75,40.02 c -7.12,-3.18 -18.1,-7.75 -30.72,-11.82 -16.63,-5.37 -52.85,-4.71 -69.92,-4.04 -4.22,0.16 -7.02,-4.31 -4.99,-8.01 2.62,-4.77 6.45,-11.09 11.3,-17.66 v 0 c 3.83,-5.2 8.4,-10.49 13.51,-15.39 11.91,-11.4 27.05,-20.29 44.94,-18.49 3.98,0.4 7.49,1.7 10.8,3.37 16.79,8.43 25.39,31.1 29.61,49.62 1.45,6.34 2.42,12.2 3.03,16.76 0.56,4.21 -3.68,7.4 -7.56,5.66"
         style="fill:#ffffff;fill-opacity:1;fill-rule:nonzero;stroke:none"
         id="path410" /><path
         d="m 1727.35,3167.72 c 0,0 -91.39,234.65 -284.04,334.31 l -11.36,-30.9 -46.22,-158.37 161.74,-216.59 34.13,-50.19 c 0,0 85.06,5.24 145.75,121.74"
         style="fill:#5a58b1;fill-opacity:1;fill-rule:nonzero;stroke:none"
         id="path412" /><path
         d="m 1576.66,3025.36 c 0,0 111.24,52.36 166.46,145.19 l -15.34,29.36 c 0,0 -116.99,-120.96 -165.11,-142.86 l 13.99,-31.69"
         style="fill:#474da9;fill-opacity:1;fill-rule:nonzero;stroke:none"
         id="path414" /><path
         d="m 999.813,2232.38 c -1.008,48.85 -41.575,87.78 -90.426,86.76 -48.852,-1.01 -87.778,-41.57 -86.766,-90.42 l 2.356,-113.75 177.183,3.66 z m -219.543,-4.54 c -1.493,72.21 56.035,132.16 128.238,133.65 72.199,1.5 132.162,-56.03 133.652,-128.23 l 3.23,-156.1 -261.894,-5.41 -3.226,156.09"
         style="fill:#e3b384;fill-opacity:1;fill-rule:nonzero;stroke:none"
         id="path416" /><path
         d="m 716.008,1474.18 -43.414,34.19 42.687,0.88 z"
         style="fill:#e3b384;fill-opacity:1;fill-rule:nonzero;stroke:none"
         id="path418" /><path
         d="m 901.672,2158.25 269.838,5.58 -14.11,-645.45 -242.404,-5.01 -242.402,-5 -40.77,644.31 269.848,5.57"
         style="fill:#e3b384;fill-opacity:1;fill-rule:nonzero;stroke:none"
         id="path420" /><path
         d="m 1199.54,2255.55 -10.29,13.75 c -5.34,7.15 -13.31,11.88 -22.14,13.16 l -0.14,0.02 4.09,28.32 c 1.02,7.04 -3.86,13.57 -10.9,14.58 l -28.78,4.16 c -7.04,1.02 -13.57,-3.87 -14.58,-10.9 l -4.09,-28.33 -0.14,0.02 c -8.83,1.28 -17.82,-1 -24.97,-6.36 l -13.75,-10.28 c -7.15,-5.34 -11.89,-13.31 -13.16,-22.15 l -47.21,-326.9 c -2.66,-18.4 10.1,-35.46 28.5,-38.13 l 78.58,-11.34 c 18.4,-2.66 35.47,10.1 38.13,28.5 l 47.2,326.91 c 1.28,8.83 -1.01,17.81 -6.35,24.97"
         style="fill:#eef2f4;fill-opacity:1;fill-rule:nonzero;stroke:none"
         id="path422" /><path
         d="m 1175.16,2017.76 -145.2,20.97 22.03,152.55 145.2,-20.98 -22.03,-152.54"
         style="fill:#f14956;fill-opacity:1;fill-rule:nonzero;stroke:none"
         id="path424" /><path
         d="m 974.203,2245.34 -14.375,9.41 c -7.469,4.89 -16.574,6.61 -25.312,4.77 l -0.137,-0.02 -5.859,28.01 c -1.454,6.96 -8.278,11.43 -15.235,9.97 l -28.465,-5.96 c -6.965,-1.45 -11.422,-8.28 -9.965,-15.23 l 5.86,-28.02 -0.141,-0.03 c -8.734,-1.82 -16.39,-7.05 -21.277,-14.52 l -9.399,-14.37 c -4.886,-7.48 -6.605,-16.58 -4.777,-25.32 l 67.617,-323.3 c 3.805,-18.19 21.641,-29.86 39.84,-26.05 l 77.712,16.25 c 18.2,3.81 29.86,21.64 26.05,39.84 l -67.613,323.3 c -1.829,8.73 -7.051,16.39 -14.524,21.27"
         style="fill:#eef2f4;fill-opacity:1;fill-rule:nonzero;stroke:none"
         id="path426" /><path
         d="m 1032.74,2013.6 -143.599,-30.04 -31.551,150.86 143.6,30.04 31.55,-150.86"
         style="fill:#f14956;fill-opacity:1;fill-rule:nonzero;stroke:none"
         id="path428" /><path
         d="m 813.16,2242 -13.465,10.68 c -6.992,5.54 -15.902,8.08 -24.773,7.06 l -0.133,-0.02 -3.289,28.42 c -0.82,7.07 -7.207,12.13 -14.273,11.31 l -28.891,-3.34 c -7.063,-0.82 -12.125,-7.2 -11.309,-14.26 l 3.289,-28.44 -0.128,-0.01 c -8.875,-1.03 -16.969,-5.54 -22.516,-12.53 l -10.664,-13.47 c -5.547,-6.99 -8.082,-15.91 -7.059,-24.77 l 37.973,-328.11 c 2.137,-18.47 18.84,-31.7 37.305,-29.56 l 78.871,9.12 c 18.465,2.14 31.703,18.85 29.562,37.31 l -37.972,328.1 c -1.024,8.88 -5.532,16.97 -12.528,22.51"
         style="fill:#eef2f4;fill-opacity:1;fill-rule:nonzero;stroke:none"
         id="path430" /><path
         d="M 850.41,2005.91 704.668,1989.03 686.949,2142.14 832.691,2159 850.41,2005.91"
         style="fill:#f14956;fill-opacity:1;fill-rule:nonzero;stroke:none"
         id="path432" /><path
         d="m 1031.74,2219.66 c -1.01,48.84 -41.572,87.76 -90.424,86.76 -48.851,-1.01 -87.777,-41.58 -86.769,-90.42 l 2.351,-113.75 177.192,3.66 z m -219.545,-4.54 c -1.492,72.2 56.047,132.16 128.25,133.65 72.205,1.49 132.155,-56.04 133.645,-128.24 l 3.23,-156.1 -261.894,-5.41 -3.231,156.1"
         style="fill:#fbd2ab;fill-opacity:1;fill-rule:nonzero;stroke:none"
         id="path434" /><path
         d="m 945.082,2124.06 269.848,5.58 -14.12,-645.44 -242.404,-5.01 -242.398,-5.01 -40.77,644.31 269.844,5.57"
         style="fill:#fbd2ab;fill-opacity:1;fill-rule:nonzero;stroke:none"
         id="path436" /><path
         d="m 950.738,1709.08 -0.843,53.17 -86.465,-1.38 c -2.625,-0.04 -5.176,1.2 -6.532,3.45 -0.113,0.18 -0.218,0.37 -0.316,0.57 l 30.156,-56.82 64,1.01"
         style="fill:#ffffff;fill-opacity:1;fill-rule:nonzero;stroke:none"
         id="path438" /><path
         d="m 894.809,1833.52 -55.223,-0.88 16.82,-10.83 -10.297,-17.85 c 0,0 -9.91,-26.23 16.723,-37.29 l 26.711,0.43 15.437,27.6 16.524,-8.38 -26.695,47.2"
         style="fill:#ffffff;fill-opacity:1;fill-rule:nonzero;stroke:none"
         id="path440" /><path
         d="m 924.391,1829.3 -48.598,26.25 23.426,41.84 c 0,0 17.187,22.99 41.761,3.24 l 11.833,-18.74 -28.422,-52.59"
         style="fill:#ffffff;fill-opacity:1;fill-rule:nonzero;stroke:none"
         id="path442" /><path
         d="m 935.133,1911.64 67.867,1.07 18.29,-30.34 17.15,9.31 -25.03,-49.18 -54.722,-0.26 15.746,10.83 -29.887,50.81 c 0,0 -1.734,3.28 -9.414,7.76"
         style="fill:#ffffff;fill-opacity:1;fill-rule:nonzero;stroke:none"
         id="path444" /><path
         d="m 995.055,1819.62 46.935,27.55 26.66,-42.73 c 0,0 10.68,-22.67 -14.94,-34.74 l -28.21,-0.44 -30.445,50.36"
         style="fill:#ffffff;fill-opacity:1;fill-rule:nonzero;stroke:none"
         id="path446" /><path
         d="m 990.344,1783.28 0.281,-17.8 60.585,0.96 c 0,0 4.84,-0.32 7.83,2.64 l -27.72,-52.35 c 0,0 -2.03,-4.85 -9.23,-6.52 l -29.938,-0.46 0.305,-19.07 -30.797,45.83 28.684,46.77"
         style="fill:#ffffff;fill-opacity:1;fill-rule:nonzero;stroke:none"
         id="path448" /><path
         d="m 1001.33,2431.82 -38.756,26.14 c -6.043,6.55 -15.644,14.18 -26.66,21.92 -37.531,78.51 -58.32,163.37 -68.809,245.56 L 753.492,2685.5 c 24.969,-104.55 58.809,-177.03 74.969,-208 l 2.48,-20.58 c -0.203,-1.54 -0.632,-3.02 -0.476,-4.66 l 9.535,-70.44 0.012,-0.04 12.824,-94.75 c 1.09,-11.53 4.465,-21.98 15.664,-21.57 l 2.059,0.07 c 11.199,0.41 11.902,11.01 10.812,22.55 l -1.984,40.52 10.496,-77.5 c 1.09,-11.53 4.465,-21.99 15.66,-21.58 l 2.059,0.07 c 11.199,0.41 11.902,11.02 10.816,22.56 l -0.395,8.01 7.997,-42.53 c 1.683,-11.51 5.589,-21.79 16.718,-20.76 l 2.043,0.18 c 11.125,1.03 11.274,11.69 9.59,23.18 l -5.891,58.26 12.348,-42.13 c 2.828,-11.34 7.735,-21.21 18.625,-19 l 2,0.4 c 10.891,2.22 9.953,12.9 7.121,24.23 l -29.363,144.35 c 0.988,8.39 3.125,16.15 5.363,23.38 10.524,-4.47 24.332,-12.1 38.826,-19.4 46.91,-23.63 49.7,7.97 49.7,7.97 l -51.77,33.53"
         style="fill:#ed8e53;fill-opacity:1;fill-rule:nonzero;stroke:none"
         id="path450" /><path
         d="m 1521.31,796.91 c 0,31.332 25.39,56.731 56.72,56.731 31.33,0 56.73,-25.399 56.73,-56.731 0,-31.32 -25.4,-56.719 -56.73,-56.719 -31.33,0 -56.72,25.399 -56.72,56.719"
         style="fill:#151f25;fill-opacity:1;fill-rule:nonzero;stroke:none"
         id="path452" /><path
         d="m 2123.31,796.91 c 0,31.332 25.39,56.731 56.72,56.731 31.33,0 56.72,-25.399 56.72,-56.731 0,-31.32 -25.39,-56.719 -56.72,-56.719 -31.33,0 -56.72,25.399 -56.72,56.719"
         style="fill:#151f25;fill-opacity:1;fill-rule:nonzero;stroke:none"
         id="path454" /><path
         d="m 2217.75,815.352 h -677.44 c -98.2,0 -177.81,79.609 -177.81,177.796 V 2327.78 H 2395.56 V 993.148 c 0,-98.187 -79.61,-177.796 -177.81,-177.796"
         style="fill:#4ec3b3;fill-opacity:1;fill-rule:nonzero;stroke:none"
         id="path456" /><path
         d="M 2424.79,2234.19 H 1333.27 c -33.8,0 -61.19,27.39 -61.19,61.19 v 44.95 c 0,33.8 27.39,61.19 61.19,61.19 h 1091.52 c 33.8,0 61.2,-27.39 61.2,-61.19 v -44.95 c 0,-33.8 -27.4,-61.19 -61.2,-61.19"
         style="fill:#3eb7a4;fill-opacity:1;fill-rule:nonzero;stroke:none"
         id="path458" /><path
         d="m 1868.36,1349.51 -2,125.77 -204.57,-3.24 c -6.2,-0.1 -12.24,2.83 -15.45,8.15 -0.26,0.43 -0.51,0.88 -0.75,1.36 l 71.35,-134.44 151.42,2.4"
         style="fill:#3eb7a4;fill-opacity:1;fill-rule:nonzero;stroke:none"
         id="path460" /><path
         d="m 1736.04,1643.91 -130.65,-2.07 39.8,-25.63 -24.37,-42.23 c 0,0 -23.45,-62.05 39.57,-88.22 l 63.19,1 36.52,65.32 39.09,-19.84 -63.15,111.67"
         style="fill:#3eb7a4;fill-opacity:1;fill-rule:nonzero;stroke:none"
         id="path462" /><path
         d="m 1806.03,1633.93 -114.99,62.1 55.43,98.99 c 0,0 40.66,54.39 98.81,7.68 l 27.99,-44.34 -67.24,-124.43"
         style="fill:#3eb7a4;fill-opacity:1;fill-rule:nonzero;stroke:none"
         id="path464" /><path
         d="m 1831.44,1828.74 160.57,2.55 43.28,-71.78 40.56,22.01 -59.21,-116.36 -129.47,-0.63 37.25,25.64 -70.71,120.19 c 0,0 -4.09,7.77 -22.27,18.38"
         style="fill:#3eb7a4;fill-opacity:1;fill-rule:nonzero;stroke:none"
         id="path466" /><path
         d="m 1973.21,1611.04 111.03,65.17 63.09,-101.09 c 0,0 25.28,-53.65 -35.34,-82.19 l -66.75,-1.06 -72.03,119.17"
         style="fill:#3eb7a4;fill-opacity:1;fill-rule:nonzero;stroke:none"
         id="path468" /><path
         d="m 1962.06,1525.05 0.67,-42.13 143.33,2.28 c 0,0 11.46,-0.74 18.52,6.25 l -65.56,-123.84 c 0,0 -4.81,-11.48 -21.84,-15.41 l -70.83,-1.13 0.72,-45.08 -72.87,108.41 67.86,110.65"
         style="fill:#3eb7a4;fill-opacity:1;fill-rule:nonzero;stroke:none"
         id="path470" /><path
         d="m 1869.31,1368.25 -1.82,114.94 -186.95,-2.97 c -5.67,-0.08 -11.19,2.59 -14.12,7.45 -0.24,0.39 -0.47,0.81 -0.69,1.25 l 65.2,-122.87 138.38,2.2"
         style="fill:#ffffff;fill-opacity:1;fill-rule:nonzero;stroke:none"
         id="path472" /><path
         d="m 1748.39,1637.3 -119.4,-1.9 36.37,-23.43 -22.27,-38.58 c 0,0 -21.42,-56.71 36.16,-80.63 l 57.75,0.91 33.38,59.7 35.72,-18.14 -57.71,102.07"
         style="fill:#ffffff;fill-opacity:1;fill-rule:nonzero;stroke:none"
         id="path474" /><path
         d="m 1812.35,1628.16 -105.08,56.75 50.65,90.48 c 0,0 37.16,49.7 90.3,7.01 l 25.57,-40.53 -61.44,-113.71"
         style="fill:#ffffff;fill-opacity:1;fill-rule:nonzero;stroke:none"
         id="path476" /><path
         d="m 1835.57,1806.2 146.74,2.33 39.56,-65.6 37.07,20.13 -54.13,-106.35 -118.31,-0.58 34.05,23.43 -64.62,109.85 c 0,0 -3.74,7.1 -20.36,16.79"
         style="fill:#ffffff;fill-opacity:1;fill-rule:nonzero;stroke:none"
         id="path478" /><path
         d="m 1965.14,1607.25 101.47,59.56 57.64,-92.39 c 0,0 23.11,-49.02 -32.29,-75.1 l -61,-0.98 -65.82,108.91"
         style="fill:#ffffff;fill-opacity:1;fill-rule:nonzero;stroke:none"
         id="path480" /><path
         d="m 1954.94,1528.67 0.62,-38.5 130.98,2.08 c 0,0 10.47,-0.67 16.93,5.71 l -59.92,-113.17 c 0,0 -4.39,-10.49 -19.96,-14.09 l -64.73,-1.03 0.66,-41.2 -66.6,99.08 62.02,101.12"
         style="fill:#ffffff;fill-opacity:1;fill-rule:nonzero;stroke:none"
         id="path482" /><path
         d="m 5456.9,796.91 c 0,31.332 25.4,56.731 56.73,56.731 31.33,0 56.72,-25.399 56.72,-56.731 0,-31.32 -25.39,-56.719 -56.72,-56.719 -31.33,0 -56.73,25.399 -56.73,56.719"
         style="fill:#151f25;fill-opacity:1;fill-rule:nonzero;stroke:none"
         id="path484" /><path
         d="m 6058.9,796.91 c 0,31.332 25.4,56.731 56.72,56.731 31.33,0 56.73,-25.399 56.73,-56.731 0,-31.32 -25.4,-56.719 -56.73,-56.719 -31.32,0 -56.72,25.399 -56.72,56.719"
         style="fill:#151f25;fill-opacity:1;fill-rule:nonzero;stroke:none"
         id="path486" /><path
         d="m 6153.35,815.352 h -677.44 c -98.21,0 -177.81,79.609 -177.81,177.796 V 2327.78 H 6331.15 V 993.148 c 0,-98.187 -79.6,-177.796 -177.8,-177.796"
         style="fill:#fbd722;fill-opacity:1;fill-rule:nonzero;stroke:none"
         id="path488" /><path
         d="M 6360.39,2234.19 H 5268.87 c -33.8,0 -61.2,27.39 -61.2,61.19 v 44.95 c 0,33.8 27.4,61.19 61.2,61.19 h 1091.52 c 33.8,0 61.19,-27.39 61.19,-61.19 v -44.95 c 0,-33.8 -27.39,-61.19 -61.19,-61.19"
         style="fill:#eac30c;fill-opacity:1;fill-rule:nonzero;stroke:none"
         id="path490" /><path
         d="m 5803.95,1349.51 -2,125.77 -204.56,-3.24 c -6.21,-0.1 -12.24,2.83 -15.45,8.15 -0.26,0.43 -0.51,0.88 -0.75,1.36 l 71.35,-134.44 151.41,2.4"
         style="fill:#eac30c;fill-opacity:1;fill-rule:nonzero;stroke:none"
         id="path492" /><path
         d="m 5671.64,1643.91 -130.65,-2.07 39.79,-25.63 -24.36,-42.23 c 0,0 -23.45,-62.05 39.56,-88.22 l 63.19,1 36.52,65.32 39.09,-19.84 -63.14,111.67"
         style="fill:#eac30c;fill-opacity:1;fill-rule:nonzero;stroke:none"
         id="path494" /><path
         d="m 5741.62,1633.93 -114.98,62.1 55.43,98.99 c 0,0 40.66,54.39 98.81,7.68 l 27.98,-44.34 -67.24,-124.43"
         style="fill:#eac30c;fill-opacity:1;fill-rule:nonzero;stroke:none"
         id="path496" /><path
         d="m 5767.03,1828.74 160.58,2.55 43.27,-71.78 40.57,22.01 -59.22,-116.36 -129.46,-0.63 37.25,25.64 -70.71,120.19 c 0,0 -4.1,7.77 -22.28,18.38"
         style="fill:#eac30c;fill-opacity:1;fill-rule:nonzero;stroke:none"
         id="path498" /><path
         d="m 5908.81,1611.04 111.03,65.17 63.08,-101.09 c 0,0 25.28,-53.65 -35.33,-82.19 l -66.76,-1.06 -72.02,119.17"
         style="fill:#eac30c;fill-opacity:1;fill-rule:nonzero;stroke:none"
         id="path500" /><path
         d="m 5897.66,1525.05 0.67,-42.13 143.32,2.28 c 0,0 11.46,-0.74 18.53,6.25 l -65.57,-123.84 c 0,0 -4.81,-11.48 -21.84,-15.41 l -70.83,-1.13 0.73,-45.08 -72.88,108.41 67.87,110.65"
         style="fill:#eac30c;fill-opacity:1;fill-rule:nonzero;stroke:none"
         id="path502" /><path
         d="m 5804.9,1368.25 -1.82,114.94 -186.95,-2.97 c -5.66,-0.08 -11.19,2.59 -14.12,7.45 -0.23,0.39 -0.47,0.81 -0.68,1.25 l 65.2,-122.87 138.37,2.2"
         style="fill:#ffffff;fill-opacity:1;fill-rule:nonzero;stroke:none"
         id="path504" /><path
         d="m 5683.99,1637.3 -119.41,-1.9 36.38,-23.43 -22.28,-38.58 c 0,0 -21.42,-56.71 36.16,-80.63 l 57.76,0.91 33.38,59.7 35.72,-18.14 -57.71,102.07"
         style="fill:#ffffff;fill-opacity:1;fill-rule:nonzero;stroke:none"
         id="path506" /><path
         d="m 5747.94,1628.16 -105.08,56.75 50.66,90.48 c 0,0 37.16,49.7 90.3,7.01 l 25.57,-40.53 -61.45,-113.71"
         style="fill:#ffffff;fill-opacity:1;fill-rule:nonzero;stroke:none"
         id="path508" /><path
         d="m 5771.16,1806.2 146.75,2.33 39.55,-65.6 37.07,20.13 -54.12,-106.35 -118.31,-0.58 34.04,23.43 -64.62,109.85 c 0,0 -3.74,7.1 -20.36,16.79"
         style="fill:#ffffff;fill-opacity:1;fill-rule:nonzero;stroke:none"
         id="path510" /><path
         d="m 5900.73,1607.25 101.47,59.56 57.65,-92.39 c 0,0 23.1,-49.02 -32.29,-75.1 l -61.01,-0.98 -65.82,108.91"
         style="fill:#ffffff;fill-opacity:1;fill-rule:nonzero;stroke:none"
         id="path512" /><path
         d="m 5890.54,1528.67 0.61,-38.5 130.99,2.08 c 0,0 10.47,-0.67 16.92,5.71 l -59.91,-113.17 c 0,0 -4.39,-10.49 -19.96,-14.09 l -64.73,-1.03 0.66,-41.2 -66.6,99.08 62.02,101.12"
         style="fill:#ffffff;fill-opacity:1;fill-rule:nonzero;stroke:none"
         id="path514" /><path
         d="m 4145.04,796.91 c 0,31.332 25.4,56.731 56.73,56.731 31.33,0 56.72,-25.399 56.72,-56.731 0,-31.32 -25.39,-56.719 -56.72,-56.719 -31.33,0 -56.73,25.399 -56.73,56.719"
         style="fill:#151f25;fill-opacity:1;fill-rule:nonzero;stroke:none"
         id="path516" /><path
         d="m 4747.03,796.91 c 0,31.332 25.4,56.731 56.73,56.731 31.33,0 56.73,-25.399 56.73,-56.731 0,-31.32 -25.4,-56.719 -56.73,-56.719 -31.33,0 -56.73,25.399 -56.73,56.719"
         style="fill:#151f25;fill-opacity:1;fill-rule:nonzero;stroke:none"
         id="path518" /><path
         d="m 4841.48,815.352 h -677.44 c -98.2,0 -177.81,79.609 -177.81,177.796 V 2327.78 H 5019.29 V 993.148 c 0,-98.187 -79.6,-177.796 -177.81,-177.796"
         style="fill:#5594d6;fill-opacity:1;fill-rule:nonzero;stroke:none"
         id="path520" /><path
         d="M 5048.53,2234.19 H 3957 c -33.8,0 -61.2,27.39 -61.2,61.19 v 44.95 c 0,33.8 27.4,61.19 61.2,61.19 h 1091.53 c 33.79,0 61.19,-27.39 61.19,-61.19 v -44.95 c 0,-33.8 -27.4,-61.19 -61.19,-61.19"
         style="fill:#4384cc;fill-opacity:1;fill-rule:nonzero;stroke:none"
         id="path522" /><path
         d="m 4492.09,1349.51 -2,125.77 -204.56,-3.24 c -6.21,-0.1 -12.25,2.83 -15.45,8.15 -0.27,0.43 -0.52,0.88 -0.75,1.36 l 71.34,-134.44 151.42,2.4"
         style="fill:#4384cc;fill-opacity:1;fill-rule:nonzero;stroke:none"
         id="path524" /><path
         d="m 4359.78,1643.91 -130.66,-2.07 39.8,-25.63 -24.37,-42.23 c 0,0 -23.45,-62.05 39.56,-88.22 l 63.19,1 36.53,65.32 39.09,-19.84 -63.14,111.67"
         style="fill:#4384cc;fill-opacity:1;fill-rule:nonzero;stroke:none"
         id="path526" /><path
         d="m 4429.76,1633.93 -114.98,62.1 55.42,98.99 c 0,0 40.67,54.39 98.81,7.68 l 27.98,-44.34 -67.23,-124.43"
         style="fill:#4384cc;fill-opacity:1;fill-rule:nonzero;stroke:none"
         id="path528" /><path
         d="m 4455.17,1828.74 160.57,2.55 43.27,-71.78 40.58,22.01 -59.23,-116.36 -129.45,-0.63 37.24,25.64 -70.71,120.19 c 0,0 -4.09,7.77 -22.27,18.38"
         style="fill:#4384cc;fill-opacity:1;fill-rule:nonzero;stroke:none"
         id="path530" /><path
         d="m 4596.94,1611.04 111.04,65.17 63.07,-101.09 c 0,0 25.29,-53.65 -35.33,-82.19 l -66.76,-1.06 -72.02,119.17"
         style="fill:#4384cc;fill-opacity:1;fill-rule:nonzero;stroke:none"
         id="path532" /><path
         d="m 4585.79,1525.05 0.67,-42.13 143.32,2.28 c 0,0 11.47,-0.74 18.54,6.25 l -65.58,-123.84 c 0,0 -4.8,-11.48 -21.83,-15.41 l -70.83,-1.13 0.72,-45.08 -72.87,108.41 67.86,110.65"
         style="fill:#4384cc;fill-opacity:1;fill-rule:nonzero;stroke:none"
         id="path534" /><path
         d="m 4493.04,1368.25 -1.83,114.94 -186.94,-2.97 c -5.67,-0.08 -11.19,2.59 -14.12,7.45 -0.24,0.39 -0.47,0.81 -0.69,1.25 l 65.21,-122.87 138.37,2.2"
         style="fill:#ffffff;fill-opacity:1;fill-rule:nonzero;stroke:none"
         id="path536" /><path
         d="m 4372.13,1637.3 -119.42,-1.9 36.38,-23.43 -22.27,-38.58 c 0,0 -21.43,-56.71 36.16,-80.63 l 57.75,0.91 33.38,59.7 35.72,-18.14 -57.7,102.07"
         style="fill:#ffffff;fill-opacity:1;fill-rule:nonzero;stroke:none"
         id="path538" /><path
         d="m 4436.07,1628.16 -105.07,56.75 50.65,90.48 c 0,0 37.17,49.7 90.3,7.01 l 25.58,-40.53 -61.46,-113.71"
         style="fill:#ffffff;fill-opacity:1;fill-rule:nonzero;stroke:none"
         id="path540" /><path
         d="m 4459.3,1806.2 146.74,2.33 39.56,-65.6 37.07,20.13 -54.13,-106.35 -118.31,-0.58 34.05,23.43 -64.62,109.85 c 0,0 -3.74,7.1 -20.36,16.79"
         style="fill:#ffffff;fill-opacity:1;fill-rule:nonzero;stroke:none"
         id="path542" /><path
         d="m 4588.87,1607.25 101.46,59.56 57.66,-92.39 c 0,0 23.09,-49.02 -32.3,-75.1 l -61,-0.98 -65.82,108.91"
         style="fill:#ffffff;fill-opacity:1;fill-rule:nonzero;stroke:none"
         id="path544" /><path
         d="m 4578.67,1528.67 0.62,-38.5 130.98,2.08 c 0,0 10.47,-0.67 16.93,5.71 l -59.92,-113.17 c 0,0 -4.39,-10.49 -19.96,-14.09 l -64.72,-1.03 0.65,-41.2 -66.59,99.08 62.01,101.12"
         style="fill:#ffffff;fill-opacity:1;fill-rule:nonzero;stroke:none"
         id="path546" /><path
         d="m 2833.17,796.91 c 0,31.332 25.4,56.731 56.73,56.731 31.33,0 56.73,-25.399 56.73,-56.731 0,-31.32 -25.4,-56.719 -56.73,-56.719 -31.33,0 -56.73,25.399 -56.73,56.719"
         style="fill:#151f25;fill-opacity:1;fill-rule:nonzero;stroke:none"
         id="path548" /><path
         d="m 3435.17,796.91 c 0,31.332 25.4,56.731 56.72,56.731 31.33,0 56.73,-25.399 56.73,-56.731 0,-31.32 -25.4,-56.719 -56.73,-56.719 -31.32,0 -56.72,25.399 -56.72,56.719"
         style="fill:#151f25;fill-opacity:1;fill-rule:nonzero;stroke:none"
         id="path550" /><path
         d="m 3529.61,815.352 h -677.43 c -98.21,0 -177.81,79.609 -177.81,177.796 V 2327.78 H 3707.43 V 993.148 c 0,-98.187 -79.61,-177.796 -177.82,-177.796"
         style="fill:#eb2360;fill-opacity:1;fill-rule:nonzero;stroke:none"
         id="path552" /><path
         d="M 3736.66,2234.19 H 2645.13 c -33.79,0 -61.19,27.39 -61.19,61.19 v 44.95 c 0,33.8 27.4,61.19 61.19,61.19 h 1091.53 c 33.8,0 61.19,-27.39 61.19,-61.19 v -44.95 c 0,-33.8 -27.39,-61.19 -61.19,-61.19"
         style="fill:#ec134a;fill-opacity:1;fill-rule:nonzero;stroke:none"
         id="path554" /><path
         d="m 3180.22,1349.51 -2,125.77 -204.56,-3.24 c -6.2,-0.1 -12.24,2.83 -15.45,8.15 -0.27,0.43 -0.51,0.88 -0.75,1.36 l 71.34,-134.44 151.42,2.4"
         style="fill:#ec134a;fill-opacity:1;fill-rule:nonzero;stroke:none"
         id="path556" /><path
         d="m 3047.91,1643.91 -130.66,-2.07 39.8,-25.63 -24.37,-42.23 c 0,0 -23.44,-62.05 39.57,-88.22 l 63.19,1 36.52,65.32 39.1,-19.84 -63.15,111.67"
         style="fill:#ec134a;fill-opacity:1;fill-rule:nonzero;stroke:none"
         id="path558" /><path
         d="m 3117.89,1633.93 -114.98,62.1 55.42,98.99 c 0,0 40.67,54.39 98.82,7.68 l 27.98,-44.34 -67.24,-124.43"
         style="fill:#ec134a;fill-opacity:1;fill-rule:nonzero;stroke:none"
         id="path560" /><path
         d="m 3143.3,1828.74 160.58,2.55 43.27,-71.78 40.57,22.01 -59.22,-116.36 -129.46,-0.63 37.25,25.64 -70.71,120.19 c 0,0 -4.1,7.77 -22.28,18.38"
         style="fill:#ec134a;fill-opacity:1;fill-rule:nonzero;stroke:none"
         id="path562" /><path
         d="m 3285.08,1611.04 111.03,65.17 63.08,-101.09 c 0,0 25.28,-53.65 -35.33,-82.19 l -66.76,-1.06 -72.02,119.17"
         style="fill:#ec134a;fill-opacity:1;fill-rule:nonzero;stroke:none"
         id="path564" /><path
         d="m 3273.93,1525.05 0.66,-42.13 143.33,2.28 c 0,0 11.46,-0.74 18.53,6.25 l -65.57,-123.84 c 0,0 -4.8,-11.48 -21.84,-15.41 l -70.82,-1.13 0.71,-45.08 -72.87,108.41 67.87,110.65"
         style="fill:#ec134a;fill-opacity:1;fill-rule:nonzero;stroke:none"
         id="path566" /><path
         d="m 3181.18,1368.25 -1.83,114.94 -186.95,-2.97 c -5.67,-0.08 -11.18,2.59 -14.11,7.45 -0.25,0.39 -0.48,0.81 -0.69,1.25 l 65.2,-122.87 138.38,2.2"
         style="fill:#ffffff;fill-opacity:1;fill-rule:nonzero;stroke:none"
         id="path568" /><path
         d="m 3060.26,1637.3 -119.41,-1.9 36.37,-23.43 -22.26,-38.58 c 0,0 -21.43,-56.71 36.16,-80.63 l 57.75,0.91 33.37,59.7 35.73,-18.14 -57.71,102.07"
         style="fill:#ffffff;fill-opacity:1;fill-rule:nonzero;stroke:none"
         id="path570" /><path
         d="m 3124.21,1628.16 -105.07,56.75 50.64,90.48 c 0,0 37.17,49.7 90.31,7.01 l 25.57,-40.53 -61.45,-113.71"
         style="fill:#ffffff;fill-opacity:1;fill-rule:nonzero;stroke:none"
         id="path572" /><path
         d="m 3147.43,1806.2 146.75,2.33 39.55,-65.6 37.07,20.13 -54.12,-106.35 -118.31,-0.58 34.05,23.43 -64.63,109.85 c 0,0 -3.74,7.1 -20.36,16.79"
         style="fill:#ffffff;fill-opacity:1;fill-rule:nonzero;stroke:none"
         id="path574" /><path
         d="m 3277,1607.25 101.47,59.56 57.65,-92.39 c 0,0 23.1,-49.02 -32.3,-75.1 l -61,-0.98 -65.82,108.91"
         style="fill:#ffffff;fill-opacity:1;fill-rule:nonzero;stroke:none"
         id="path576" /><path
         d="m 3266.81,1528.67 0.61,-38.5 130.98,2.08 c 0,0 10.48,-0.67 16.94,5.71 l -59.93,-113.17 c 0,0 -4.38,-10.49 -19.96,-14.09 l -64.72,-1.03 0.65,-41.2 -66.59,99.08 62.02,101.12"
         style="fill:#ffffff;fill-opacity:1;fill-rule:nonzero;stroke:none"
         id="path578" /><path
         d="m 4585.54,2861.03 c -7.41,5.56 -18.31,12.06 -29.28,19.2 -35.52,23.12 -15.35,39.31 -15.35,39.31 l 44.21,-22.17 33.81,-16.13 c 27.74,-5.58 90.75,-44.52 90.75,-44.52 l -7.5,-36.06 -29.05,-14.51 c -0.95,-0.84 -1.77,-1.81 -2.95,-2.43 l -51.51,-24.76 -0.03,-0.01 v 0 l -69.28,-33.3 c -8.24,-4.4 -16.69,-6.66 -21.09,1.58 l -0.81,1.51 c -4.39,8.23 2.47,13.5 10.7,17.89 l 28.18,16.76 -56.67,-27.24 c -8.24,-4.4 -16.7,-6.66 -21.1,1.57 l -0.81,1.52 c -4.39,8.23 2.47,13.5 10.71,17.89 l 5.57,3.32 -32.04,-13.35 c -8.46,-3.94 -17.03,-5.75 -20.97,2.7 l -0.73,1.56 c -3.95,8.45 3.18,13.35 11.64,17.3 l 41.76,21.91 -33.57,-10.04 c -8.83,-3.05 -17.54,-3.96 -20.59,4.87 l -0.57,1.62 c -3.04,8.82 4.56,12.94 13.38,15.99 l 109.65,43.67 c 5.25,4.48 9.6,9.49 13.54,14.35"
         style="fill:#f7916f;fill-opacity:1;fill-rule:nonzero;stroke:none"
         id="path580" /><path
         d="m 4959.47,3040.27 c 3.59,-31.46 3.2,-57.83 -5.38,-68.69 C 4925.73,2935.65 4653.53,2851 4653.53,2851 l 16.87,-56.08 c 0,0 344.21,13.82 395.99,129.45 14.63,32.67 18.81,73.76 17.3,115.9 h -124.22"
         style="fill:#f7916f;fill-opacity:1;fill-rule:nonzero;stroke:none"
         id="path582" /><path
         d="m 2268.96,3413.44 -12.81,10.65 c -6.66,5.53 -15.24,8.2 -23.86,7.41 l -0.14,-0.01 -2.54,27.64 c -0.63,6.87 -6.7,11.92 -13.57,11.29 l -28.1,-2.58 c -6.86,-0.63 -11.92,-6.71 -11.28,-13.58 l 2.53,-27.64 -0.13,-0.01 c -8.62,-0.79 -16.57,-4.98 -22.12,-11.63 l -10.65,-12.82 c -5.53,-6.65 -8.2,-15.24 -7.41,-23.86 l 29.32,-319.04 c 1.65,-17.95 17.54,-31.17 35.5,-29.52 l 76.69,7.05 c 17.95,1.65 31.17,17.54 29.52,35.5 l -29.31,319.03 c -0.8,8.63 -4.98,16.58 -11.64,22.12"
         style="fill:#eef2f4;fill-opacity:1;fill-rule:nonzero;stroke:none"
         id="path584" /><path
         d="m 2299.68,3183.63 -141.71,-13.02 -13.68,148.87 141.71,13.02 13.68,-148.87"
         style="fill:#204155;fill-opacity:1;fill-rule:nonzero;stroke:none"
         id="path586" /><path
         d="m 5811.28,2531.43 c -11.6,2.04 -27.73,3.13 -44.3,4.91 -53.62,5.77 -40.07,35.76 -40.07,35.76 l 62.95,0.33 47.67,1.17 c 34.71,9.66 128.65,1.78 128.65,1.78 l 12.27,-45.26 -24.6,-33.19 c -0.61,-1.51 -0.98,-3.09 -1.95,-4.47 l -44.19,-57.78 -0.03,-0.04 v 0 l -59.44,-77.72 c -6.81,-9.72 -15.12,-17.17 -24.84,-10.36 l -1.79,1.25 c -9.74,6.81 -4.98,16.74 1.84,26.48 l 22.31,35.25 -48.62,-63.57 c -6.82,-9.74 -15.12,-17.18 -24.86,-10.36 l -1.78,1.25 c -9.73,6.8 -4.98,16.73 1.83,26.47 l 4.43,6.97 -28.68,-33.6 c -7.33,-9.36 -16.01,-16.35 -25.38,-9.02 l -1.7,1.33 c -9.36,7.33 -4.09,17 3.24,26.35 l 34.77,48.93 -32.33,-30.74 c -8.25,-8.55 -17.62,-14.59 -26.16,-6.34 l -1.58,1.52 c -8.54,8.25 -2.28,17.31 5.97,25.86 l 99.28,112.74 c 3.38,8.11 5.42,16.31 7.09,24.1"
         style="fill:#f8a49b;fill-opacity:1;fill-rule:nonzero;stroke:none"
         id="path588" /><path
         d="m 3306.28,2595.59 c 9.66,-0.59 22.74,-2.82 36.3,-4.58 43.9,-5.7 38.85,20.84 38.85,20.84 l -50.18,12.34 -37.81,10.1 c -25.83,14.38 -102.32,26.14 -102.32,26.14 l -18.48,-33.76 13.25,-31.21 c 0.19,-1.32 0.18,-2.65 0.7,-3.95 l 24.16,-54.59 0.01,-0.04 v 0 l 32.5,-73.43 c 3.57,-9.08 8.76,-16.61 17.84,-13.05 l 1.66,0.65 c 9.08,3.57 7.2,12.41 3.63,21.49 l -11.04,32.42 26.59,-60.08 c 3.56,-9.08 8.76,-16.61 17.84,-13.04 l 1.66,0.65 c 9.08,3.56 7.19,12.4 3.62,21.48 l -2.18,6.42 16.43,-32.33 c 4.04,-8.88 9.63,-16.13 18.51,-12.08 l 1.62,0.74 c 8.88,4.05 6.52,12.77 2.47,21.65 l -18.34,45.72 19.89,-30.73 c 4.95,-8.41 11.26,-15.04 19.66,-10.09 l 1.54,0.91 c 8.41,4.94 5.16,13.38 0.21,21.78 l -57.56,109.05 c -1.13,7.11 -1.19,14.05 -1.03,20.58"
         style="fill:#fbc6bc;fill-opacity:1;fill-rule:nonzero;stroke:none"
         id="path590" /></g></g></svg>
