<?xml version="1.0" encoding="iso-8859-1"?>
<!-- Generator: Adobe Illustrator 19.0.0, SVG Export Plug-In . SVG Version: 6.00 Build 0)  -->
<svg version="1.1" id="Layer_1" xmlns="http://www.w3.org/2000/svg" xmlns:xlink="http://www.w3.org/1999/xlink" x="0px" y="0px"
	 viewBox="0 0 473.935 473.935" style="enable-background:new 0 0 473.935 473.935;" xml:space="preserve">
<circle style="fill:#b9d90b;" cx="236.967" cy="236.967" r="236.967"/>
<polygon style="fill:#EFEFEF;" points="319.047,380.547 154.858,380.547 113.814,121.956 360.091,121.956 "/>
<polygon style="fill:#E0E0E0;" points="362.546,147.198 111.359,147.198 103.876,107.786 370.029,107.786 "/>
<g>
	<path style="fill:#B1C635;" d="M186.146,301.607h-0.007c0.745,0.445,1.658,0.76,2.72,0.905l0,0
		C187.797,302.366,186.891,302.052,186.146,301.607z"/>
	<path style="fill:#B1C635;" d="M188.859,302.512c-0.906-0.153-1.826-0.468-2.713-0.905
		C186.891,302.052,187.797,302.366,188.859,302.512z"/>
	<path style="fill:#b9d90b;" d="M173.578,240.672l9.807,5.706l-12.528,21.699c-1.22,2.118-1.22,5.691,0,7.809l11.738,20.322
		c0.191-1.111,0.629-2.26,1.295-3.427l20.052-34.589l9.777,5.65l-8.479-31.659L173.578,240.672z"/>
	<path style="fill:#b9d90b;" d="M188.859,302.512c0.191,0.03,0.367,0.056,0.535,0.071v-0.011
		C189.222,302.561,189.031,302.542,188.859,302.512z"/>
	<path style="fill:#b9d90b;" d="M183.83,297.42c-0.037,1.8,0.782,3.278,2.309,4.187h0.007
		C184.612,300.698,183.793,299.22,183.83,297.42z"/>
	<path style="fill:#b9d90b;" d="M189.391,302.572c-0.168-0.011-0.359-0.03-0.535-0.06l0,0
		C189.031,302.542,189.222,302.561,189.391,302.572L189.391,302.572z"/>
	<path style="fill:#b9d90b;" d="M185.742,293.45c-0.812,1.418-1.212,2.761-1.235,3.97c-0.045,1.8,0.782,3.278,2.316,4.187
		c0.883,0.438,1.796,0.752,2.713,0.905c0.176,0.03,0.359,0.049,0.535,0.06l1.893,0.045h34.372v-9.635V276.17h-30.54L185.742,293.45z
		"/>
	<path style="fill:#b9d90b;" d="M237.697,227.295l31.622,8.58l8.58-31.641l-9.86,5.605l-12.468-21.74
		c-1.212-2.118-4.303-3.918-6.754-3.921l-23.454-0.079c0.861,0.73,1.639,1.688,2.301,2.859l19.828,34.713L237.697,227.295z"/>
	<path style="fill:#b9d90b;" d="M200.369,216.949l20.52,11.929l14.271-24.554l-9.508-16.7c-0.666-1.171-1.471-2.058-2.316-2.574
		c-1.126-0.688-2.301-0.711-3.435-0.082c-0.629,0.419-1.265,0.984-1.755,1.568c-0.079,0.101-0.168,0.228-0.247,0.348l-0.958,1.553
		L200.369,216.949z"/>
	<path style="fill:#b9d90b;" d="M303.968,270.546C303.968,270.55,303.968,270.55,303.968,270.546
		c0.007-0.861-0.183-1.807-0.591-2.803c-0.015,0.004,0,0.004,0,0.004C303.785,268.739,303.975,269.686,303.968,270.546z"/>
	<path style="fill:#b9d90b;" d="M303.377,267.747c0.322,0.857,0.52,1.811,0.591,2.799
		C303.975,269.686,303.785,268.739,303.377,267.747z"/>
	<path style="fill:#b9d90b;" d="M234.438,289.255l23.364,23.001l-0.052-11.345l25.059-0.198c2.44-0.022,5.519-1.83,6.732-3.959
		l11.57-20.408c-1.059,0.397-2.264,0.606-3.611,0.614l-39.989,0.251l-0.086-11.304L234.438,289.255z"/>
	<path style="fill:#b9d90b;" d="M303.377,267.744c-0.075-0.176-0.146-0.341-0.221-0.501l-0.015,0.011
		C303.231,267.418,303.302,267.583,303.377,267.744z"/>
	<path style="fill:#b9d90b;" d="M301.521,274.67c1.579-0.883,2.432-2.339,2.447-4.12c0,0,0,0,0-0.004
		C303.96,272.331,303.1,273.783,301.521,274.67z"/>
	<path style="fill:#b9d90b;" d="M303.141,267.253c0.086,0.165,0.161,0.329,0.236,0.494c0,0-0.015,0,0-0.004
		C303.302,267.583,303.231,267.418,303.141,267.253L303.141,267.253z"/>
	<path style="fill:#b9d90b;" d="M297.487,275.268c1.631-0.015,2.997-0.352,4.034-0.943c1.579-0.883,2.44-2.339,2.447-4.12
		c-0.075-0.988-0.269-1.942-0.591-2.795c-0.075-0.168-0.146-0.329-0.236-0.498l-0.913-1.65l-17.422-29.627l-8.288,4.879
		l-14.499,8.524l15.472,26.323L297.487,275.268z"/>
</g>
<g>
</g>
<g>
</g>
<g>
</g>
<g>
</g>
<g>
</g>
<g>
</g>
<g>
</g>
<g>
</g>
<g>
</g>
<g>
</g>
<g>
</g>
<g>
</g>
<g>
</g>
<g>
</g>
<g>
</g>
</svg>
